STARTFONT 2.1
FONT -Monotype-Arial Narrow-Bold-I-Normal--50-360-100-100-P-245-iso8859-9
SIZE 36 100 100
FONTBOUNDINGBOX 57 59 -12 -11

STARTPROPERTIES 24
FOUNDRY "Monotype"
FAMILY_NAME "Arial Narrow"
WEIGHT_NAME "Bold"
SLANT "I"
SETWIDTH_NAME "Normal"
ADD_STYLE_NAME ""
PIXEL_SIZE 50
POINT_SIZE 360
RESOLUTION_X 100
RESOLUTION_Y 100
SPACING "P"
AVERAGE_WIDTH 245
CHARSET_REGISTRY "iso8859"
CHARSET_ENCODING "9"
FACE_NAME "Arial Narrow Bold Italic ISO Latin5"
_DEC_DEVICE_FONTNAMES "PS=arialnarrow-bit-lat5"
COPYRIGHT "Copyright (c) 1993 Monotype Typography Ltd."
CAP_HEIGHT 44
X_HEIGHT 32
WEIGHT 10
QUAD_WIDTH 26
DEFAULT_CHAR 160
FONT_DESCENT 13
FONT_ASCENT 49
ENDPROPERTIES

CHARS 191

STARTCHAR space
ENCODING 32
SWIDTH 228 0
DWIDTH 11 0
BBX 0 0 0 0
BITMAP
ENDCHAR

STARTCHAR exclam
ENCODING 33
SWIDTH 273 0
DWIDTH 14 0
BBX 15 36 1 0
BITMAP
01F8
01F8
01F8
01F8
01F8
01F8
03F0
03F0
03F0
03F0
03F0
03E0
03E0
03E0
07E0
07C0
07C0
07C0
07C0
0780
0780
0780
0780
0700
0F00
0F00
0F00
0000
0000
1F00
3F00
3F00
3F00
3F00
3E00
3E00
ENDCHAR

STARTCHAR quotedbl
ENCODING 34
SWIDTH 389 0
DWIDTH 19 0
BBX 20 13 4 23
BITMAP
1F8FC0
1F8FC0
1F8FC0
1F8FC0
3F1F80
3F1F80
3F1F80
3F1F80
3E1F00
3E1F00
3E1F00
3E1F00
3C1E00
ENDCHAR

STARTCHAR numbersign
ENCODING 35
SWIDTH 456 0
DWIDTH 23 0
BBX 25 38 0 -1
BITMAP
007C3E00
00783C00
00783C00
00783C00
00783C00
00F87C00
00F87C00
00F07C00
00F07800
00F07800
3FFFFF00
3FFFFF00
3FFFFF00
3FFFFF00
3FFFFF00
01E0F000
01E0F000
03E1F000
03E1F000
03E1F000
03C1E000
03C1E000
03C1E000
3FFFFF00
3FFFFF00
3FFFFF00
3FFFFF00
3FFFFF00
0783C000
0F87C000
0F87C000
0F87C000
0F078000
0F078000
0F078000
0F0F8000
1F0F8000
1F0F8000
ENDCHAR

STARTCHAR dollar
ENCODING 36
SWIDTH 456 0
DWIDTH 23 0
BBX 25 44 0 -5
BITMAP
0001C000
0001C000
001FC000
003FF000
00FFF800
01FFFC00
01FFFE00
03F3FE00
03E3BE00
03C3BF00
07C71F00
07C71C00
07C70000
07C70000
07E70000
07E70000
03FE0000
03FE0000
01FF0000
01FFC000
00FFE000
007FF000
001FF000
001FF800
001FF800
001DFC00
001CFC00
001C7C00
00387C00
3E387C00
3E387C00
3E387C00
3F38F800
1FB1F800
1FF7F800
0FFFF000
0FFFE000
07FFC000
03FF8000
00FE0000
00E00000
00E00000
00E00000
00E00000
ENDCHAR

STARTCHAR percent
ENCODING 37
SWIDTH 729 0
DWIDTH 36 0
BBX 35 38 2 -1
BITMAP
01F0001E00
03F8003E00
07FC003C00
0FFC007C00
1FBE00F800
1F1E00F000
1E1E01F000
3E1E01E000
3E1E03C000
3C1E07C000
3C1E078000
3C3E0F8000
3C3C1F0000
3C3C1E0000
3E7C3E0000
1FF83C0000
1FF0780000
0FE0F80000
03C0F00000
0001F03C00
0003E0FE00
0003C1FF00
0007C3FF00
000783EF80
000F07C780
001F078780
001E0F8780
003E0F8780
007C0F0780
00780F0780
00F80F0F80
01F00F0F00
01E00F0F00
03E00F9F00
03C007FE00
078007FC00
0F8003F800
0F0001F000
ENDCHAR

STARTCHAR ampersand
ENCODING 38
SWIDTH 592 0
DWIDTH 30 0
BBX 29 38 2 -1
BITMAP
0003C000
000FF000
003FF800
003FFC00
007FFE00
00FC3E00
00FC3E00
00F83E00
00F83E00
00F87E00
00F8FC00
00FDFC00
00FFF800
00FFF000
007FF000
007FE000
01FF8000
03FF0000
07FF8000
0FFF8000
1FFFC000
1FCFC000
3F8FE180
3F07E3C0
3E07F7E0
7E03FFE0
7E03FFC0
7E01FFC0
7E00FF80
7F00FF00
3F00FF00
3F83FF80
3FFFFFC0
1FFFFFE0
0FFFFFC0
07FFE780
03FF8780
007C0100
ENDCHAR

STARTCHAR quoteright
ENCODING 39
SWIDTH 228 0
DWIDTH 11 0
BBX 12 15 3 21
BITMAP
0FC0
0FC0
0FC0
0FC0
0FC0
0F80
1F80
0380
0380
0700
0700
1F00
3E00
3C00
3000
ENDCHAR

STARTCHAR parenleft
ENCODING 40
SWIDTH 273 0
DWIDTH 14 0
BBX 19 48 1 -11
BITMAP
000F80
000F00
001E00
003E00
003C00
007C00
00F800
00F800
01F000
01F000
03E000
03E000
03C000
07C000
07C000
0FC000
0F8000
0F8000
1F8000
1F0000
1F0000
1F0000
1F0000
3F0000
3F0000
3F0000
3E0000
3E0000
3E0000
3E0000
3E0000
3E0000
3E0000
3E0000
3E0000
3E0000
3E0000
1E0000
1E0000
1F0000
1F0000
1F0000
0F0000
0F0000
0F0000
0F8000
078000
078000
ENDCHAR

STARTCHAR parenright
ENCODING 41
SWIDTH 273 0
DWIDTH 14 0
BBX 19 48 -5 -11
BITMAP
003C00
003C00
001E00
001E00
001E00
001F00
001F00
001F00
000F00
000F00
000F80
000F80
000F80
000F80
000F80
000F80
000F80
000F80
000F80
000F80
000F80
000F80
000F80
001F80
001F80
001F80
001F00
001F00
001F00
003F00
003E00
003E00
003E00
007C00
007C00
007800
00F800
00F800
01F000
01F000
03E000
03E000
07C000
078000
0F8000
0F0000
1E0000
3E0000
ENDCHAR

STARTCHAR asterisk
ENCODING 42
SWIDTH 319 0
DWIDTH 16 0
BBX 17 17 3 19
BITMAP
03C000
01C000
01C000
01C000
31C600
39DE00
3FFE00
7FFE00
1FFC00
03E000
07E000
07F000
0F7800
1E7800
1E3C00
0C3800
041000
ENDCHAR

STARTCHAR plus
ENCODING 43
SWIDTH 479 0
DWIDTH 24 0
BBX 23 25 2 6
BITMAP
007C00
007C00
007C00
007C00
007C00
007C00
007C00
007C00
007C00
007C00
7FFFFC
7FFFFC
7FFFFC
7FFFFC
7FFFFC
7FFFFC
007C00
007C00
007C00
007C00
007C00
007C00
007C00
007C00
007C00
ENDCHAR

STARTCHAR comma
ENCODING 44
SWIDTH 228 0
DWIDTH 11 0
BBX 11 15 -1 -8
BITMAP
0FC0
0F80
1F80
1F80
1F80
1F80
1F80
0700
0700
0700
0E00
3E00
3C00
3800
7000
ENDCHAR

STARTCHAR minus
ENCODING 45
SWIDTH 479 0
DWIDTH 24 0
BBX 23 6 2 15
BITMAP
7FFFFC
7FFFFC
7FFFFC
7FFFFC
7FFFFC
7FFFFC
ENDCHAR

STARTCHAR period
ENCODING 46
SWIDTH 228 0
DWIDTH 11 0
BBX 10 7 0 0
BITMAP
1F80
1F00
1F00
3F00
3F00
3F00
3E00
ENDCHAR

STARTCHAR slash
ENCODING 47
SWIDTH 228 0
DWIDTH 11 0
BBX 21 37 -3 -1
BITMAP
0000F0
0001E0
0001E0
0003C0
0003C0
0003C0
000780
000780
000F00
000F00
000F00
001E00
001E00
003C00
003C00
003C00
007800
007800
007800
00F000
00F000
01E000
01E000
01E000
03C000
03C000
078000
078000
078000
0F0000
0F0000
1E0000
1E0000
1E0000
3C0000
3C0000
780000
ENDCHAR

STARTCHAR zero
ENCODING 48
SWIDTH 456 0
DWIDTH 23 0
BBX 23 37 2 -1
BITMAP
000F00
003FC0
00FFE0
01FFF0
01FFF0
03FFF8
07F1F8
07E0F8
07C0F8
0FC0FC
0F80FC
1F80FC
1F80FC
1F80FC
1F00FC
3F00FC
3F00FC
3F00F8
3F01F8
3E01F8
7E01F8
7E01F8
7E01F8
7E01F0
7E03F0
7E03F0
7E03E0
7E07E0
3E07E0
3E0FC0
3F1FC0
3FFF80
1FFF00
1FFF00
0FFE00
07F800
01E000
ENDCHAR

STARTCHAR one
ENCODING 49
SWIDTH 456 0
DWIDTH 23 0
BBX 20 36 3 0
BITMAP
0003C0
0007C0
000FC0
001F80
003F80
007F80
01FF80
03FF80
0FFF80
1FFF00
1FFF00
1FFF00
3F3F00
3E3F00
383F00
003E00
007E00
007E00
007E00
007E00
007E00
007C00
00FC00
00FC00
00FC00
00FC00
00FC00
00F800
01F800
01F800
01F800
01F800
01F000
01F000
03F000
03F000
ENDCHAR

STARTCHAR two
ENCODING 50
SWIDTH 456 0
DWIDTH 23 0
BBX 24 36 1 0
BITMAP
003FC0
007FE0
00FFF0
01FFF8
03FFFC
03F9FC
07F0FE
07E07E
07E07E
07E07E
03C07E
00007E
00007C
0000FC
0001FC
0001F8
0003F8
0007F0
000FF0
000FE0
001FC0
003F80
007F00
00FF00
01FE00
01FC00
03F800
07F000
07E000
0FE000
1FFFF8
1FFFF8
1FFFF0
3FFFF0
3FFFF0
3FFFF0
ENDCHAR

STARTCHAR three
ENCODING 51
SWIDTH 456 0
DWIDTH 23 0
BBX 23 37 1 -1
BITMAP
001F00
007FC0
00FFE0
01FFF0
03FFF8
03FFF8
07F1FC
07E0FC
07C0FC
0FC0FC
00C0FC
0000FC
0000FC
0001F8
0003F8
001FF0
001FE0
001FC0
003F80
003FC0
003FE0
0003F0
0003F0
0001F8
0001F8
0001F8
0601F8
3E01F8
3E01F0
3F03F0
3F87F0
1FFFE0
1FFFE0
0FFFC0
07FF80
03FE00
00F800
ENDCHAR

STARTCHAR four
ENCODING 52
SWIDTH 456 0
DWIDTH 23 0
BBX 25 36 0 0
BITMAP
00003E00
00007E00
0000FE00
0000FE00
0001FC00
0003FC00
0003FC00
0007FC00
000FFC00
000FFC00
001FF800
003FF800
003EF800
007DF800
00FDF800
00F9F800
01F1F000
03F1F000
07E1F000
07C3F000
0FC3F000
1F83F000
1F03E000
3FFFFE00
3FFFFE00
3FFFFC00
3FFFFC00
3FFFFC00
7FFFFC00
0007C000
0007C000
000FC000
000FC000
000F8000
000F8000
000F8000
ENDCHAR

STARTCHAR five
ENCODING 53
SWIDTH 456 0
DWIDTH 23 0
BBX 25 36 1 -1
BITMAP
00FFFE00
00FFFE00
00FFFE00
01FFFC00
01FFFC00
01FFFC00
01F00000
03F00000
03F00000
03E00000
03E00000
07FF8000
07FFE000
07FFF000
07FFF000
0FFFF800
0FE3F800
0FC1FC00
0180FC00
0000FC00
0000FC00
0000FC00
0000FC00
0000FC00
0300FC00
3E00F800
3F01F800
3F01F800
3F03F000
1F87F000
1FFFE000
1FFFE000
0FFFC000
07FF8000
03FE0000
00F80000
ENDCHAR

STARTCHAR six
ENCODING 54
SWIDTH 456 0
DWIDTH 23 0
BBX 23 37 2 -1
BITMAP
000F00
007FC0
00FFE0
01FFF0
03FFF0
03FFF8
07F1F8
0FE0F8
0FC0F8
0F8080
1F8000
1F8000
1FBC00
3FFF00
3FFF80
3FFFC0
3FFFE0
3FC7E0
3F83E0
7F03F0
7F03F0
7E03F0
7E03F0
7E03F0
7E03F0
7E03F0
7E03E0
3E03E0
3E07E0
3F07E0
3F0FC0
1FFFC0
1FFF80
0FFF00
0FFE00
03FC00
00F000
ENDCHAR

STARTCHAR seven
ENCODING 55
SWIDTH 456 0
DWIDTH 23 0
BBX 23 35 3 0
BITMAP
3FFFFC
3FFFFC
3FFFF8
3FFFF8
3FFFF8
3FFFF0
0003E0
0007E0
000FC0
000F80
001F80
001F00
003F00
003E00
007C00
007C00
00FC00
00F800
01F800
01F000
03F000
03E000
03E000
07E000
07C000
07C000
0FC000
0F8000
0F8000
1F8000
1F8000
1F0000
1F0000
3F0000
3F0000
ENDCHAR

STARTCHAR eight
ENCODING 56
SWIDTH 456 0
DWIDTH 23 0
BBX 23 37 2 -1
BITMAP
003F00
00FFC0
01FFE0
03FFF0
07FFF0
07E3F8
0FC1F8
0FC0F8
0F80F8
0F80F8
0F80F8
0F81F8
07C1F0
07E3F0
03FFE0
01FFC0
03FF00
07FF80
0FFFC0
1FCFE0
1F87E0
3F03E0
3F03F0
3E03F0
7E03F0
7E03F0
7E03F0
7E03E0
7E07E0
7E07E0
3F0FE0
3F9FC0
3FFFC0
1FFF80
0FFF00
07FE00
03F800
ENDCHAR

STARTCHAR nine
ENCODING 57
SWIDTH 456 0
DWIDTH 23 0
BBX 23 37 1 -1
BITMAP
001E00
007FC0
00FFE0
01FFE0
03FFF0
07FFF8
07E1F8
07E0F8
0FC0F8
0F80FC
0F80FC
1F80FC
1F80FC
1F80FC
1F80FC
1F80FC
1F80FC
0F81FC
0FC1FC
0FC3F8
07FFF8
07FFF8
03FFF8
01FFF8
0079F8
0003F0
0003F0
0003F0
3E07E0
3F0FE0
3F0FC0
3FFFC0
1FFF80
1FFF00
0FFE00
07FC00
01E000
ENDCHAR

STARTCHAR colon
ENCODING 58
SWIDTH 273 0
DWIDTH 14 0
BBX 13 26 1 0
BITMAP
03F0
03F0
03F0
03E0
03E0
07E0
07E0
0000
0000
0000
0000
0000
0000
0000
0000
0000
0000
0000
0000
1F80
1F00
1F00
3F00
3F00
3F00
3F00
ENDCHAR

STARTCHAR semicolon
ENCODING 59
SWIDTH 273 0
DWIDTH 14 0
BBX 15 34 0 -8
BITMAP
01F8
01F8
01F8
01F8
01F0
01F0
03F0
0000
0000
0000
0000
0000
0000
0000
0000
0000
0000
0000
0000
0FC0
0FC0
0FC0
0F80
1F80
1F80
1F80
0380
0700
0700
0F00
1E00
3E00
3C00
3000
ENDCHAR

STARTCHAR less
ENCODING 60
SWIDTH 479 0
DWIDTH 24 0
BBX 23 27 2 4
BITMAP
00000C
00003C
0000FC
0003FC
0007FC
001FFC
007FFC
01FFF0
07FFC0
1FFF00
7FF800
7FE000
7F8000
7F0000
7FC000
7FF000
3FFC00
0FFF00
03FFC0
00FFF8
003FFC
001FFC
0007FC
0001FC
00007C
00001C
000004
ENDCHAR

STARTCHAR equal
ENCODING 61
SWIDTH 479 0
DWIDTH 24 0
BBX 23 17 2 10
BITMAP
7FFFFC
7FFFFC
7FFFFC
7FFFFC
7FFFFC
7FFFFC
000000
000000
000000
000000
000000
7FFFFC
7FFFFC
7FFFFC
7FFFFC
7FFFFC
7FFFFC
ENDCHAR

STARTCHAR greater
ENCODING 62
SWIDTH 479 0
DWIDTH 24 0
BBX 23 27 2 4
BITMAP
600000
780000
7E0000
7F8000
7FC000
7FF000
7FFC00
1FFF00
07FFC0
01FFF0
003FFC
000FFC
0003FC
0001FC
0007FC
001FFC
007FF8
01FFE0
07FF80
1FFF00
7FFC00
7FF000
7FC000
7F0000
7C0000
700000
400000
ENDCHAR

STARTCHAR question
ENCODING 63
SWIDTH 501 0
DWIDTH 25 0
BBX 24 37 3 0
BITMAP
003F80
01FFE0
03FFF0
07FFF8
0FFFF8
0FE1FC
1F80FC
1F807C
3F007C
3F007C
3E007C
0000FC
0001FC
0003F8
0003F8
0007F0
000FE0
001FC0
003F80
007F00
00FE00
00FE00
01F800
01F800
03F000
03F000
03E000
03E000
000000
000000
07E000
07E000
07C000
07C000
0FC000
0FC000
0FC000
ENDCHAR

STARTCHAR at
ENCODING 64
SWIDTH 800 0
DWIDTH 40 0
BBX 41 48 0 -11
BITMAP
0000FFE00000
0003FFFC0000
000FFFFE0000
003FFFFF0000
007FF0FFC000
00FF001FC000
01FC0007E000
01F00001F000
03E00000F000
07C00000F800
0780FE007800
0F81FF7E3C00
0F03FFFC3C00
1F07FFFC3C00
1E0FE7FC1C00
1E0F81FC1E00
3C1F81FC1E00
3C1F00FC1E00
3C3F00F81E00
3C3E00F81E00
783E00F81E00
787E00F81E00
787C00F81E00
787C00F81C00
787C01F03C00
787C01F03C00
787C01F03C00
787C01F07800
787C03F0F800
387E03F0F000
387E07E1F000
3C3F0FF3E000
3C3FFFFFC000
3C1FFFFFC000
1E0FFFFF0000
1E07FBFE0000
1F03E1F80000
0F8000001F00
0F8000003E00
07C000007E00
03F00000FC00
03F80001F800
01FE0007F000
00FFF8FFE000
003FFFFFC000
001FFFFF8000
0007FFFE0000
0000FFF00000
ENDCHAR

STARTCHAR A
ENCODING 65
SWIDTH 592 0
DWIDTH 30 0
BBX 31 36 -2 0
BITMAP
00003F80
00003F80
00007F80
00007F80
0000FFC0
0000FFC0
0001FFC0
0001FFC0
0003F7C0
0003F7C0
0007E7C0
0007E7E0
0007C7E0
000FC7E0
000FC7E0
001F83E0
001F83E0
003F03E0
003F03E0
007E03F0
007E03F0
00FC03F0
00FFFFF0
01FFFFF0
01FFFFF0
01FFFFF0
03FFFFF0
03FFFFF8
07E001F8
07E001F8
0FC001F8
0FC001F8
1F8000F8
1F8000F8
3F8000FC
3F0000FC
ENDCHAR

STARTCHAR B
ENCODING 66
SWIDTH 592 0
DWIDTH 30 0
BBX 31 36 0 0
BITMAP
00FFFE00
01FFFFC0
01FFFFE0
01FFFFF0
01FFFFF0
01FFFFF8
01F807F8
03F003F8
03F001F8
03F001F8
03F001F8
03F001F8
03F003F0
07E007F0
07E01FE0
07FFFFE0
07FFFF80
07FFFF00
07FFFF80
0FFFFFC0
0FFFFFE0
0FC00FF0
0FC007F0
0FC003F0
1F8003F0
1F8003F0
1F8003F0
1F8007F0
1F8007E0
1F801FE0
3FFFFFE0
3FFFFFC0
3FFFFF80
3FFFFF00
3FFFFE00
3FFFF000
ENDCHAR

STARTCHAR C
ENCODING 67
SWIDTH 592 0
DWIDTH 30 0
BBX 29 38 3 -1
BITMAP
000FF800
003FFC00
007FFF00
00FFFF80
01FFFF80
03FFFFC0
07FE3FE0
07F80FE0
0FF007E0
0FE007E0
1FC003F0
1F8003F0
3F800000
3F800000
3F000000
3F000000
3F000000
7E000000
7E000000
7E000000
7E000000
7E000000
7E000000
7E000000
7E000C00
7E000FC0
7F001FC0
7F001F80
3F003F80
3F807F80
3FC0FF00
1FE1FE00
1FFFFE00
0FFFFC00
0FFFF800
07FFF000
01FFC000
007F0000
ENDCHAR

STARTCHAR D
ENCODING 68
SWIDTH 592 0
DWIDTH 30 0
BBX 31 36 1 0
BITMAP
01FFF800
01FFFE00
01FFFF80
01FFFFC0
01FFFFE0
03FFFFE0
03F00FF0
03F007F0
03F003F0
03F003F8
03E001F8
07E001F8
07E001F8
07E001F8
07E001F8
07E001F8
0FC001F8
0FC001F8
0FC001F8
0FC001F8
0FC003F8
0FC003F0
1F8003F0
1F8007F0
1F8007E0
1F800FE0
1F800FE0
1F801FC0
3F003FC0
3F00FF80
3FFFFF00
3FFFFE00
3FFFFC00
3FFFF800
7FFFE000
7FFF0000
ENDCHAR

STARTCHAR E
ENCODING 69
SWIDTH 547 0
DWIDTH 27 0
BBX 31 36 0 0
BITMAP
00FFFFFC
00FFFFF8
01FFFFF8
01FFFFF8
01FFFFF8
01FFFFF8
01F80000
01F80000
03F00000
03F00000
03F00000
03F00000
03F00000
03F00000
07FFFFE0
07FFFFC0
07FFFFC0
07FFFFC0
07FFFFC0
07FFFFC0
0FC00000
0FC00000
0FC00000
0FC00000
0FC00000
0FC00000
1F800000
1F800000
1F800000
1F800000
1FFFFFC0
1FFFFF80
3FFFFF80
3FFFFF80
3FFFFF80
3FFFFF80
ENDCHAR

STARTCHAR F
ENCODING 70
SWIDTH 501 0
DWIDTH 25 0
BBX 30 36 0 0
BITMAP
00FFFFF0
01FFFFF0
01FFFFF0
01FFFFF0
01FFFFE0
01FFFFE0
01F80000
03F00000
03F00000
03F00000
03F00000
03F00000
03F00000
07E00000
07E00000
07FFFF80
07FFFF80
07FFFF80
07FFFF80
0FFFFF80
0FFFFF00
0FC00000
0FC00000
0FC00000
0FC00000
1F800000
1F800000
1F800000
1F800000
1F800000
3F800000
3F000000
3F000000
3F000000
3F000000
3F000000
ENDCHAR

STARTCHAR G
ENCODING 71
SWIDTH 638 0
DWIDTH 32 0
BBX 31 38 2 -1
BITMAP
0003F800
001FFF00
003FFF80
00FFFFC0
01FFFFE0
01FFFFF0
03FE0FF0
07F807F8
07F003F8
0FE001F8
0FC001F8
1F8000FC
1F800000
3F000000
3F000000
3F000000
3F000000
3E000000
7E01FFF0
7E01FFF0
7E01FFF0
7E01FFF0
7E01FFF0
7E01FFF0
7E0003E0
7E0003E0
7E0003E0
3F0007E0
3F0007E0
3F8007E0
3F801FC0
1FE0FFC0
1FFFFFC0
0FFFFFC0
07FFFF80
03FFFE00
01FFF800
007FC000
ENDCHAR

STARTCHAR H
ENCODING 72
SWIDTH 592 0
DWIDTH 30 0
BBX 33 36 0 0
BITMAP
00FC007E00
00FC007E00
00FC007E00
01F8007E00
01F8007E00
01F800FC00
01F800FC00
01F800FC00
01F800FC00
03F000FC00
03F000FC00
03F001F800
03F001F800
03F001F800
03FFFFF800
07FFFFF800
07FFFFF800
07FFFFF000
07FFFFF000
07FFFFF000
07E003F000
0FC003F000
0FC003F000
0FC007E000
0FC007E000
0FC007E000
0FC007E000
1F8007E000
1F8007E000
1F800FC000
1F800FC000
1F800FC000
1F000FC000
3F000FC000
3F000FC000
3F001F8000
ENDCHAR

STARTCHAR I
ENCODING 73
SWIDTH 228 0
DWIDTH 11 0
BBX 15 36 0 0
BITMAP
01F8
01F8
01F8
01F8
01F8
01F8
03F0
03F0
03F0
03F0
03F0
03F0
07E0
07E0
07E0
07E0
07E0
07E0
0FC0
0FC0
0FC0
0FC0
0FC0
0FC0
1F80
1F80
1F80
1F80
1F80
1F00
3F00
3F00
3F00
3F00
3F00
3E00
ENDCHAR

STARTCHAR J
ENCODING 74
SWIDTH 456 0
DWIDTH 23 0
BBX 26 37 0 -1
BITMAP
00001F80
00001F00
00003F00
00003F00
00003F00
00003F00
00003F00
00007E00
00007E00
00007E00
00007E00
00007E00
00007E00
0000FC00
0000FC00
0000FC00
0000FC00
0000FC00
0000FC00
0001F800
0001F800
0001F800
0001F800
0001F800
0001F800
1E03F000
7E03F000
7E03F000
7E03E000
7F07E000
7F8FE000
3FFFC000
3FFFC000
1FFF8000
1FFF8000
0FFE0000
03FC0000
ENDCHAR

STARTCHAR K
ENCODING 75
SWIDTH 592 0
DWIDTH 30 0
BBX 34 36 0 0
BITMAP
00FC00FF00
00FC00FF00
01F801FE00
01F803FC00
01F807F800
01F80FF000
01F81FE000
01F83FC000
03F07F8000
03F0FF0000
03F0FE0000
03F1FC0000
03F3F80000
03F7F00000
07EFF00000
07FFF00000
07FFF80000
07FFF80000
07FFFC0000
07FEFC0000
0FFCFE0000
0FF87E0000
0FF07E0000
0FE07F0000
0FC03F0000
0FC03F8000
1F801F8000
1F801FC000
1F801FC000
1F800FE000
1F800FE000
1F8007E000
3F0007F000
3F0003F000
3F0003F800
3F0003F800
ENDCHAR

STARTCHAR L
ENCODING 76
SWIDTH 501 0
DWIDTH 25 0
BBX 25 36 0 0
BITMAP
00FC0000
00FC0000
01FC0000
01F80000
01F80000
01F80000
01F80000
01F80000
03F80000
03F00000
03F00000
03F00000
03F00000
03F00000
07E00000
07E00000
07E00000
07E00000
07E00000
07E00000
0FC00000
0FC00000
0FC00000
0FC00000
0FC00000
0FC00000
1F800000
1F800000
1F800000
1F800000
1FFFFF00
1FFFFF00
3FFFFE00
3FFFFE00
3FFFFE00
3FFFFE00
ENDCHAR

STARTCHAR M
ENCODING 77
SWIDTH 683 0
DWIDTH 34 0
BBX 38 36 0 0
BITMAP
00FF001FF0
00FF001FF0
01FF803FF0
01FF803FE0
01FF803FE0
01FF807FE0
01FF807FE0
01FF80FFE0
03EF80FBE0
03EF80FBC0
03EF81F7C0
03EF81F7C0
03EF83F7C0
03EF83E7C0
07CF83E7C0
07CF87EF80
07CF87CF80
07CF8FCF80
07CF8F8F80
07CF8F8F80
0FCF9F9F80
0F8F9F1F00
0F8FBF1F00
0F8FBE1F00
0F8FBE1F00
1F8FFE3F00
1F8FFC3F00
1F07FC3E00
1F07F83E00
1F07F83E00
1F07F87E00
3F07F07E00
3F07F07C00
3F07F07C00
3E07E07C00
3E07E07C00
ENDCHAR

STARTCHAR N
ENCODING 78
SWIDTH 592 0
DWIDTH 30 0
BBX 33 36 0 0
BITMAP
00FC003E00
00FC003E00
00FE007E00
00FE007E00
01FE007E00
01FF007C00
01FF007C00
01FF007C00
01FF80FC00
01FF80FC00
03FF80FC00
03FFC0F800
03FFC0F800
03EFC1F800
03E7E1F800
03E7E1F800
07E7E1F800
07E3F1F000
07E3F1F000
07C3F3F000
07C1F3F000
0FC1FBF000
0FC1FBF000
0FC0FBE000
0FC0FFE000
0F80FFE000
0F807FE000
1F807FE000
1F807FE000
1F803FC000
1F803FC000
1F003FC000
1F003FC000
3F001FC000
3F001FC000
3F001F8000
ENDCHAR

STARTCHAR O
ENCODING 79
SWIDTH 638 0
DWIDTH 32 0
BBX 32 38 2 -1
BITMAP
0003FC00
001FFF00
003FFF80
00FFFFC0
01FFFFE0
03FFFFF0
03FE1FF0
07F807F8
0FF003F8
0FE001F8
0FC001FC
1FC001FC
1F8000FC
3F8000FC
3F8000FC
3F0000FC
3F0000FC
3F0000FC
7E0000FC
7E0000FC
7E0001FC
7E0001F8
7E0001F8
7E0001F8
7E0003F8
7E0003F0
7F0007F0
7F0007F0
3F800FE0
3F801FE0
3FC03FC0
1FF0FF80
1FFFFF00
0FFFFF00
07FFFE00
03FFF800
01FFF000
003F8000
ENDCHAR

STARTCHAR P
ENCODING 80
SWIDTH 547 0
DWIDTH 27 0
BBX 31 36 0 0
BITMAP
00FFFF00
00FFFFC0
00FFFFE0
01FFFFF0
01FFFFF0
01FFFFF8
01F803F8
01F801F8
01F801F8
03F001F8
03F001F8
03F001F8
03F003F8
03F003F0
03F007F0
07E01FF0
07FFFFE0
07FFFFE0
07FFFFC0
07FFFF80
07FFFE00
0FFFF800
0FC00000
0FC00000
0FC00000
0FC00000
0FC00000
1F800000
1F800000
1F800000
1F800000
1F800000
1F000000
3F000000
3F000000
3F000000
ENDCHAR

STARTCHAR Q
ENCODING 81
SWIDTH 638 0
DWIDTH 32 0
BBX 32 42 2 -5
BITMAP
0003FC00
001FFF00
003FFF80
00FFFFC0
01FFFFE0
03FFFFF0
03FE1FF0
07F807F8
0FF003F8
0FE001F8
0FC001FC
1FC001FC
1F8000FC
3F8000FC
3F0000FC
3F0000FC
3F0000FC
3F0000FC
7E0000FC
7E0000FC
7E0001FC
7E0001F8
7E0001F8
7E0001F8
7E0103F8
7E0383F0
7F03C7F0
7F07E7F0
3F87FFE0
3F81FFE0
3FC1FFC0
1FF0FF80
1FFFFF80
0FFFFF00
07FFFF00
03FFFF80
01FFFFC0
003F8FE0
000007E0
000007C0
000003C0
00000180
ENDCHAR

STARTCHAR R
ENCODING 82
SWIDTH 592 0
DWIDTH 30 0
BBX 32 36 0 0
BITMAP
00FFFF80
01FFFFE0
01FFFFF0
01FFFFF8
01FFFFF8
01FFFFFC
03F803FC
03F000FC
03F000FC
03F000FC
03F000FC
03F000FC
07E001FC
07E001FC
07E003F8
07E01FF8
07FFFFF0
07FFFFE0
0FFFFFC0
0FFFFF80
0FFFFC00
0FC1FC00
0FC0FC00
0FC07E00
1F807E00
1F803F00
1F803F00
1F803F80
1F801F80
1F801FC0
3F001FC0
3F000FC0
3F000FE0
3F000FE0
3F0007E0
3F0007F0
ENDCHAR

STARTCHAR S
ENCODING 83
SWIDTH 547 0
DWIDTH 27 0
BBX 28 38 1 -1
BITMAP
000FE000
003FFC00
007FFE00
00FFFF00
01FFFF80
03FFFFC0
03FC3FC0
03F01FC0
07E00FE0
07E007E0
07E007E0
07E007E0
07F00000
07F80000
03FC0000
03FF0000
03FFC000
01FFF000
00FFF800
003FFE00
001FFE00
0007FF00
0001FF00
00007F80
00003F80
3E001F80
3E001F80
3F001F80
3F001F80
3F003F80
3F807F00
1FE1FF00
1FFFFE00
0FFFFE00
0FFFFC00
07FFF800
01FFF000
007F8000
ENDCHAR

STARTCHAR T
ENCODING 84
SWIDTH 501 0
DWIDTH 25 0
BBX 28 36 3 0
BITMAP
1FFFFFC0
1FFFFFC0
1FFFFFC0
3FFFFF80
3FFFFF80
3FFFFF80
003F0000
003F0000
003F0000
003F0000
003F0000
003F0000
007E0000
007E0000
007E0000
007E0000
007E0000
007E0000
00FC0000
00FC0000
00FC0000
00FC0000
00FC0000
00FC0000
01F80000
01F80000
01F80000
01F80000
01F80000
01F80000
03F00000
03F00000
03F00000
03F00000
03F00000
03E00000
ENDCHAR

STARTCHAR U
ENCODING 85
SWIDTH 592 0
DWIDTH 30 0
BBX 30 37 3 -1
BITMAP
07E001F8
07E003F0
07E003F0
07E003F0
0FC003F0
0FC003F0
0FC003F0
0FC007E0
0FC007E0
0FC007E0
1F8007E0
1F8007E0
1F8007E0
1F800FC0
1F800FC0
1F800FC0
3F000FC0
3F000FC0
3F000FC0
3F001F80
3F001F80
3F001F80
7E001F80
7E001F80
7E003F80
7E003F00
7E003F00
7E007F00
7F007E00
3F00FE00
3FC3FC00
3FFFFC00
1FFFF800
1FFFF000
0FFFE000
03FFC000
00FF0000
ENDCHAR

STARTCHAR V
ENCODING 86
SWIDTH 547 0
DWIDTH 27 0
BBX 31 36 3 0
BITMAP
3F0001F8
3F0001F8
3F0003F0
3F0003F0
3F0003F0
3F0007E0
1F8007E0
1F800FC0
1F800FC0
1F801F80
1F801F80
1F803F00
1F803F00
0FC03F00
0FC07E00
0FC07E00
0FC0FC00
0FC0FC00
0FC1F800
0FC1F800
07E3F000
07E3F000
07E3E000
07E7E000
07E7E000
07EFC000
03EFC000
03FF8000
03FF8000
03FF0000
03FF0000
03FE0000
03FE0000
01FE0000
01FC0000
01FC0000
ENDCHAR

STARTCHAR W
ENCODING 87
SWIDTH 774 0
DWIDTH 39 0
BBX 42 36 3 0
BITMAP
3F003F801F80
3F007F803F00
3F007F803F00
3F007F803E00
3F00FF807E00
3F00FF807E00
3F01FF80FC00
3F01FF80FC00
3F01FF80F800
3F03FF81F800
3F03EF81F800
3F07EF83F000
3F07EF83F000
3F07CF83E000
3F0FCF87E000
3F0F8F87E000
3F1F8F8FC000
3F1F8F8FC000
3F1F0F8F8000
3F3F0F9F8000
3F3E0F9F8000
3F7E0F9F0000
3F7E0FBF0000
3F7C0FBE0000
3FFC0FFE0000
1FF80FFE0000
1FF80FFC0000
1FF80FFC0000
1FF00FF80000
1FF00FF80000
1FE00FF80000
1FE00FF00000
1FC00FF00000
1FC00FF00000
1FC00FE00000
1F800FE00000
ENDCHAR

STARTCHAR X
ENCODING 88
SWIDTH 547 0
DWIDTH 27 0
BBX 37 36 -3 0
BITMAP
00FC001FE0
00FC001FC0
00FE003F80
007E007F80
007F00FF00
003F00FE00
003F81FE00
003F83FC00
001F87F800
001FC7F000
000FCFF000
000FCFE000
0007FFC000
0007FFC000
0007FF8000
0003FF0000
0003FE0000
0001FE0000
0003FC0000
0003FC0000
0007FC0000
000FFE0000
001FFE0000
001FFF0000
003FFF0000
007FBF0000
007F3F8000
00FF1F8000
01FE1FC000
03FC0FC000
03FC0FE000
07F80FE000
0FF007E000
0FE007F000
1FE003F000
3FC003F800
ENDCHAR

STARTCHAR Y
ENCODING 89
SWIDTH 547 0
DWIDTH 27 0
BBX 31 36 3 0
BITMAP
3F0003F8
3F8007F0
1F8007F0
1F800FE0
1FC00FC0
0FC01FC0
0FC01F80
0FE03F80
07E07F00
07F07F00
03F0FE00
03F0FC00
03F9FC00
01F9F800
01FBF800
01FFF000
00FFE000
00FFE000
007FC000
007FC000
007F8000
003F0000
003F0000
003F0000
007E0000
007E0000
007E0000
007E0000
007E0000
007E0000
00FC0000
00FC0000
00FC0000
00FC0000
00FC0000
00FC0000
ENDCHAR

STARTCHAR Z
ENCODING 90
SWIDTH 501 0
DWIDTH 25 0
BBX 30 36 -1 0
BITMAP
01FFFFF0
01FFFFF0
01FFFFF0
01FFFFF0
03FFFFF0
03FFFFE0
00001FE0
00001FC0
00003F80
00007F80
00007F00
0000FE00
0001FE00
0001FC00
0003F800
0007F800
0007F000
000FE000
001FC000
003FC000
003F8000
007F0000
00FF0000
00FE0000
01FC0000
03FC0000
03F80000
07F00000
0FE00000
1FE00000
1FFFFFC0
1FFFFF80
1FFFFF80
3FFFFF80
3FFFFF80
3FFFFF80
ENDCHAR

STARTCHAR bracketleft
ENCODING 91
SWIDTH 273 0
DWIDTH 14 0
BBX 21 45 -1 -9
BITMAP
007FE0
007FE0
007FE0
007FC0
00FFC0
00FC00
00FC00
00F800
00F800
00F800
01F800
01F800
01F800
01F000
01F000
01F000
03F000
03F000
03E000
03E000
03E000
03E000
07E000
07E000
07C000
07C000
07C000
0FC000
0FC000
0FC000
0F8000
0F8000
0F8000
1F8000
1F8000
1F8000
1F0000
1F0000
1F0000
3F0000
3FF000
3FF000
3FF000
3FE000
3FE000
ENDCHAR

STARTCHAR backslash
ENCODING 92
SWIDTH 228 0
DWIDTH 11 0
BBX 11 37 2 -1
BITMAP
7800
7800
3C00
3C00
3C00
3C00
3C00
3C00
3C00
3C00
3E00
1E00
1E00
1E00
1E00
1E00
1E00
1E00
1F00
0F00
0F00
0F00
0F00
0F00
0F00
0F00
0F80
0780
0780
0780
0780
0780
0780
0780
07C0
03C0
03C0
ENDCHAR

STARTCHAR bracketright
ENCODING 93
SWIDTH 273 0
DWIDTH 14 0
BBX 21 45 -4 -9
BITMAP
007FE0
007FE0
007FE0
007FE0
007FE0
0007C0
0007C0
0007C0
000FC0
000FC0
000FC0
000F80
000F80
000F80
001F80
001F80
001F80
001F00
001F00
001F00
003F00
003F00
003E00
003E00
003E00
003E00
007E00
007E00
007C00
007C00
007C00
00FC00
00FC00
00FC00
00F800
00F800
00F800
01F800
01F800
01F800
1FF000
3FF000
3FF000
3FF000
3FF000
ENDCHAR

STARTCHAR asciicircum
ENCODING 94
SWIDTH 479 0
DWIDTH 24 0
BBX 22 19 1 17
BITMAP
007C00
00FC00
00FC00
00FE00
01FE00
01FE00
03FF00
03FF00
03FF80
07CF80
07CF80
0FCFC0
0F87C0
0F87C0
1F87E0
1F03E0
1F03F0
3F03F0
3E01F0
ENDCHAR

STARTCHAR underscore
ENCODING 95
SWIDTH 456 0
DWIDTH 23 0
BBX 29 3 -3 -6
BITMAP
3FFFFFE0
3FFFFFE0
3FFFFFE0
ENDCHAR

STARTCHAR quoteleft
ENCODING 96
SWIDTH 228 0
DWIDTH 11 0
BBX 11 15 3 21
BITMAP
01C0
0380
0780
0F80
0E00
1C00
1C00
1C00
3F00
3F00
3F00
3F00
3F00
3E00
7E00
ENDCHAR

STARTCHAR a
ENCODING 97
SWIDTH 456 0
DWIDTH 23 0
BBX 23 28 0 -1
BITMAP
003F80
00FFE0
01FFF0
03FFF8
07FFF8
07E1FC
07C0FC
07C0FC
0000FC
0000FC
0001FC
007FF8
03FFF8
0FFFF8
1FFFF8
1FF9F8
3F81F0
3F01F0
3E03F0
3E03F0
3E03F0
3F07F0
3F9FF0
3FFFF0
1FFFF0
1FFBF0
0FF3F0
07E000
ENDCHAR

STARTCHAR b
ENCODING 98
SWIDTH 501 0
DWIDTH 25 0
BBX 26 37 0 -1
BITMAP
00F80000
00F80000
01F80000
01F80000
01F80000
01F80000
01F00000
01F00000
03F00000
03F1F000
03F7FC00
03EFFE00
03FFFE00
07FFFF00
07FC7F00
07F03F00
07F01F80
07E01F80
07E01F80
0FC01F80
0FC01F80
0FC01F80
0FC01F80
0F801F80
0F801F00
1F801F00
1F803F00
1FC03F00
1FC03E00
1FC07E00
1FE0FC00
3FF1FC00
3EFFF800
3EFFF000
3E7FF000
3E3FC000
001F8000
ENDCHAR

STARTCHAR c
ENCODING 99
SWIDTH 456 0
DWIDTH 23 0
BBX 23 28 1 -1
BITMAP
003F80
00FFC0
03FFF0
07FFF0
07FFF8
0FF3F8
1FC1FC
1F80FC
1F80FC
3F0080
3F0000
3F0000
3E0000
7E0000
7E0000
7E0000
7E0000
7E0000
7E03F0
7E03F0
3E03F0
3F07E0
3FDFE0
1FFFC0
1FFF80
0FFF80
07FE00
01FC00
ENDCHAR

STARTCHAR d
ENCODING 100
SWIDTH 501 0
DWIDTH 25 0
BBX 28 37 1 -1
BITMAP
00000FC0
00000FC0
00000FC0
00000FC0
00000F80
00000F80
00001F80
00001F80
00001F80
007E1F80
01FF1F00
03FFBF00
07FFFF00
07FFFF00
0FE3FF00
0FC1FF00
1F80FE00
1F80FE00
3F00FE00
3F007E00
3E007E00
3E007E00
3E007C00
7E00FC00
7E00FC00
7E00FC00
7E00FC00
7E01F800
7E01F800
3F03F800
3F07F800
3FCFF800
3FFFF800
1FFFF000
1FFDF000
0FF9F000
03F00000
ENDCHAR

STARTCHAR e
ENCODING 101
SWIDTH 456 0
DWIDTH 23 0
BBX 23 28 2 -1
BITMAP
003F00
00FF80
03FFC0
07FFE0
0FFFF0
0FE3F0
1F81F8
1F81F8
3F00F8
3F00F8
3F00F8
3E00F8
3FFFF8
7FFFF8
7FFFF8
7FFFF8
7E0000
7E0000
3E0000
3E0180
3F03F0
3F03F0
1F8FE0
1FFFC0
0FFFC0
07FF80
03FF00
00FC00
ENDCHAR

STARTCHAR f
ENCODING 102
SWIDTH 273 0
DWIDTH 14 0
BBX 20 37 1 0
BITMAP
003F80
00FFC0
00FFC0
01FFC0
01FFC0
01F980
03F000
03F000
03F000
03F000
03E000
3FFE00
3FFE00
3FFE00
3FFE00
3FFE00
07C000
07C000
0FC000
0FC000
0FC000
0FC000
0F8000
0F8000
1F8000
1F8000
1F8000
1F8000
1F0000
1F0000
3F0000
3F0000
3F0000
3F0000
3E0000
7E0000
7E0000
ENDCHAR

STARTCHAR g
ENCODING 103
SWIDTH 501 0
DWIDTH 25 0
BBX 28 38 -1 -11
BITMAP
001F0000
007F87C0
00FFC7C0
01FFEFC0
03FFFFC0
03F8FF80
07F07F80
07E03F80
0FC03F80
0FC03F80
0FC03F80
0F803F00
0F803F00
1F803F00
1F803F00
1F803F00
1F803F00
1F807E00
1F807E00
0FC0FE00
0FC1FE00
0FE3FE00
0FFFFE00
07FFFC00
07FFFC00
03FEFC00
01F8FC00
0000FC00
0000F800
3E00F800
3F01F800
3F01F800
3F87F000
1FFFF000
1FFFE000
0FFFC000
07FF8000
01FE0000
ENDCHAR

STARTCHAR h
ENCODING 104
SWIDTH 501 0
DWIDTH 25 0
BBX 25 36 0 0
BITMAP
00F80000
01F80000
01F80000
01F80000
01F80000
01F00000
01F00000
03F00000
03F00000
03F0F800
03E3FC00
03EFFE00
07FFFE00
07FFFF00
07FC7F00
07F83F00
07F03F00
07E03F00
0FE03F00
0FC03F00
0FC03F00
0FC03E00
0F807E00
0F807E00
1F807E00
1F807E00
1F807C00
1F807C00
1F00FC00
1F00FC00
3F00FC00
3F00FC00
3F00F800
3F01F800
3E01F800
3E01F800
ENDCHAR

STARTCHAR i
ENCODING 105
SWIDTH 228 0
DWIDTH 11 0
BBX 15 36 0 0
BITMAP
00F8
01F8
01F8
01F8
01F8
01F8
0000
0000
0000
0000
03F0
03F0
03E0
07E0
07E0
07E0
07E0
07C0
07C0
0FC0
0FC0
0FC0
0FC0
0F80
0F80
1F80
1F80
1F80
1F80
1F00
1F00
3F00
3F00
3F00
3F00
3E00
ENDCHAR

STARTCHAR j
ENCODING 106
SWIDTH 228 0
DWIDTH 11 0
BBX 21 47 -6 -11
BITMAP
0003E0
0003E0
0007E0
0007E0
0007E0
0007E0
000000
000000
000000
000000
000FC0
000FC0
000F80
000F80
001F80
001F80
001F80
001F80
001F00
001F00
003F00
003F00
003F00
003F00
003E00
007E00
007E00
007E00
007E00
007E00
007C00
00FC00
00FC00
00FC00
00FC00
00FC00
00F800
01F800
01F800
01F800
23F800
3FF000
3FF000
3FE000
3FE000
3FC000
3F8000
ENDCHAR

STARTCHAR k
ENCODING 107
SWIDTH 456 0
DWIDTH 23 0
BBX 27 36 0 0
BITMAP
00F80000
00F80000
01F80000
01F80000
01F80000
01F80000
01F00000
01F00000
03F00000
03F00000
03F07F80
03F07F00
03E0FE00
03E1FC00
07E3F800
07E7F000
07EFE000
07EFE000
07DFC000
07FF8000
0FFF8000
0FFF8000
0FFFC000
0FFFC000
0FF7C000
1FE7C000
1FC7E000
1F83E000
1F83E000
1F83F000
1F03F000
3F03F000
3F01F000
3F01F800
3F01F800
3E01F800
ENDCHAR

STARTCHAR l
ENCODING 108
SWIDTH 228 0
DWIDTH 11 0
BBX 15 36 0 0
BITMAP
00F8
01F8
01F8
01F8
01F8
01F0
01F0
03F0
03F0
03F0
03F0
03E0
03E0
07E0
07E0
07E0
07E0
07C0
07C0
0FC0
0FC0
0FC0
0FC0
0F80
0F80
1F80
1F80
1F80
1F80
1F00
3F00
3F00
3F00
3F00
3F00
3E00
ENDCHAR

STARTCHAR m
ENCODING 109
SWIDTH 729 0
DWIDTH 36 0
BBX 37 27 0 0
BITMAP
0001F00F80
03F7FC3FC0
03EFFC7FE0
03FFFEFFF0
03FFFFFFF0
07FC7FC7F0
07F87F83F0
07F07F03F0
07E07F03F0
07E07E03F0
07E07E03E0
0FC07E03E0
0FC07E07E0
0FC07C07E0
0FC0FC07E0
0F80FC07E0
0F80FC07C0
1F80FC07C0
1F80F80FC0
1F80F80FC0
1F81F80FC0
1F01F80FC0
1F01F80F80
3F01F80F80
3F01F01F80
3F01F01F80
3F03F01F80
ENDCHAR

STARTCHAR n
ENCODING 110
SWIDTH 501 0
DWIDTH 25 0
BBX 25 27 0 0
BITMAP
0001F800
03E3FC00
03EFFE00
07FFFE00
07FFFF00
07FC7F00
07F83F00
07F03F00
07E03F00
0FE03F00
0FC03F00
0FC03E00
0FC03E00
0F807E00
0F807E00
1F807E00
1F807E00
1F807C00
1F80FC00
1F00FC00
1F00FC00
3F00FC00
3F00FC00
3F00F800
3F01F800
3E01F800
3E01F800
ENDCHAR

STARTCHAR o
ENCODING 111
SWIDTH 501 0
DWIDTH 25 0
BBX 24 28 1 -1
BITMAP
007F80
01FFE0
03FFF0
07FFF8
0FFFF8
0FF3FC
1FC0FC
1F80FC
3F807E
3F007E
3F007E
3E007E
7E007E
7E007E
7E007E
7E007E
7E007C
7E00FC
7E00FC
7E01FC
3F01F8
3F83F8
3FCFF0
1FFFF0
0FFFE0
0FFFC0
07FF00
01FC00
ENDCHAR

STARTCHAR p
ENCODING 112
SWIDTH 501 0
DWIDTH 25 0
BBX 28 37 -2 -10
BITMAP
00007C00
00F9FF00
00FBFF00
01FFFF80
01FFFFC0
01FF1FC0
01FC0FC0
01FC07E0
01F807E0
03F807E0
03F007E0
03F007E0
03F007E0
03F007E0
03E007E0
07E007C0
07E007C0
07E00FC0
07F00FC0
07F01FC0
07F01F80
0FF83F80
0FFC7F00
0FFFFF00
0FFFFE00
0F9FFC00
0F8FF800
1F83E000
1F800000
1F800000
1F800000
1F000000
1F000000
3F000000
3F000000
3F000000
3F000000
ENDCHAR

STARTCHAR q
ENCODING 113
SWIDTH 501 0
DWIDTH 25 0
BBX 26 37 1 -10
BITMAP
007E0000
00FF1F00
03FF9F00
03FFDF00
07FFDF00
0FE3FF00
0FC1FF00
1F80FE00
1F80FE00
3F00FE00
3F007E00
3F007E00
3E007C00
3E007C00
7E00FC00
7E00FC00
7E00FC00
7E00FC00
7E01F800
7E01F800
3F03F800
3F07F800
3FCFF800
3FFFF800
1FFFF000
0FFDF000
0FFBF000
03E3F000
0003F000
0003F000
0003E000
0003E000
0007E000
0007E000
0007E000
0007E000
0007C000
ENDCHAR

STARTCHAR r
ENCODING 114
SWIDTH 319 0
DWIDTH 16 0
BBX 21 27 0 0
BITMAP
0001E0
03E7E0
03EFE0
07EFC0
07FFC0
07FFC0
07FC00
07F800
07F000
0FE000
0FE000
0FC000
0FC000
0FC000
0F8000
1F8000
1F8000
1F8000
1F8000
1F0000
1F0000
3F0000
3F0000
3F0000
3F0000
3E0000
3E0000
ENDCHAR

STARTCHAR s
ENCODING 115
SWIDTH 456 0
DWIDTH 23 0
BBX 25 28 -1 -1
BITMAP
001FC000
007FF000
01FFF800
01FFFC00
03FFFE00
07E0FE00
07C07E00
07C03800
07E00000
07F00000
07FC0000
07FF8000
03FFC000
01FFF000
00FFF800
007FF800
001FFC00
0003FC00
0000FC00
0F00FC00
3F00FC00
3F80FC00
3FC3F800
1FFFF800
0FFFF000
07FFE000
03FFC000
00FF0000
ENDCHAR

STARTCHAR t
ENCODING 116
SWIDTH 273 0
DWIDTH 14 0
BBX 16 36 1 -1
BITMAP
0008
0018
0070
00F0
01F0
03F0
03F0
03F0
03E0
1FFE
3FFC
3FFC
3FFC
3FFC
07C0
0FC0
0FC0
0FC0
0FC0
0F80
0F80
1F80
1F80
1F80
1F80
1F80
1F00
3F00
3F00
3F00
3F80
3FF0
3FE0
1FE0
1FE0
07E0
ENDCHAR

STARTCHAR u
ENCODING 117
SWIDTH 501 0
DWIDTH 25 0
BBX 25 27 2 -1
BITMAP
0FC03F00
0FC03E00
0FC07E00
0F807E00
0F807E00
1F807E00
1F807E00
1F807C00
1F80FC00
1F00FC00
1F00FC00
3F00FC00
3F00F800
3F00F800
3F01F800
3E01F800
3E01F800
7E03F800
7E03F000
7E07F000
7E0FF000
7F1FF000
7FFFF000
3FFFF000
3FFBE000
1FE3E000
0F800000
ENDCHAR

STARTCHAR v
ENCODING 118
SWIDTH 456 0
DWIDTH 23 0
BBX 25 26 2 0
BITMAP
7E007E00
7E007E00
3E00FC00
3E00FC00
3E01F800
3F01F800
3F03F000
3F03F000
1F07E000
1F07E000
1F0FC000
1F0FC000
1F9F8000
1F9F8000
0FBF0000
0FBF0000
0FFE0000
0FFE0000
0FFC0000
0FFC0000
0FF80000
07F80000
07F00000
07F00000
07E00000
07E00000
ENDCHAR

STARTCHAR w
ENCODING 119
SWIDTH 638 0
DWIDTH 32 0
BBX 35 26 1 0
BITMAP
3E01F01F80
3E01F01F80
3E03F01F00
3E03F03F00
3E07F83F00
3E07F83E00
1F07F87E00
1F0FF87C00
1F0FF8FC00
1F0FF8FC00
1F1FF8F800
1F1F79F800
1F3E79F000
1F3E79F000
1F3C7BF000
1F7C7BE000
0F7C7FE000
0FF87FC000
0FF87FC000
0FF07F8000
0FF07F8000
0FF07F8000
0FE07F0000
0FE07F0000
0FC07E0000
0FC07E0000
ENDCHAR

STARTCHAR x
ENCODING 120
SWIDTH 456 0
DWIDTH 23 0
BBX 29 26 -2 0
BITMAP
03F00FE0
03F01FC0
01F83F80
01F83F80
00FC7F00
00FCFE00
00FEFC00
007FFC00
007FF800
003FF000
003FF000
001FE000
001FC000
003F8000
003FC000
007FC000
00FFE000
00FFE000
01FFF000
03FBF000
07F3F000
07F1F800
0FE1F800
1FC0FC00
3F80FC00
3F80FE00
ENDCHAR

STARTCHAR y
ENCODING 121
SWIDTH 456 0
DWIDTH 23 0
BBX 28 37 -1 -11
BITMAP
07C00FC0
07C00FC0
07E01F80
07E01F80
07E01F80
07E03F00
07E03F00
03E07E00
03E07E00
03E0FC00
03E0FC00
03F1F800
03F1F800
03F1F000
01F3F000
01F3E000
01F7E000
01F7E000
01F7C000
01F7C000
01FF8000
00FF8000
00FF0000
00FF0000
00FE0000
00FE0000
00FC0000
00FC0000
01FC0000
01F80000
03F80000
3FF00000
3FF00000
3FE00000
3FC00000
7F800000
1F000000
ENDCHAR

STARTCHAR z
ENCODING 122
SWIDTH 410 0
DWIDTH 20 0
BBX 24 26 -1 0
BITMAP
03FFFC
07FFFC
07FFFC
07FFFC
07FFF8
0003F8
0007F0
0007E0
000FC0
001FC0
003F80
003F00
007E00
00FE00
01FC00
01F800
03F800
07F000
0FE000
0FC000
1FFFF0
3FFFF0
3FFFF0
3FFFF0
3FFFE0
3FFFE0
ENDCHAR

STARTCHAR braceleft
ENCODING 123
SWIDTH 319 0
DWIDTH 16 0
BBX 21 48 1 -11
BITMAP
0001F0
0007F0
000FE0
001FE0
003FE0
003FE0
003F00
007E00
007C00
007C00
007C00
007C00
00F800
00F800
00F800
00F800
01F800
01F000
01F000
03F000
07E000
3FC000
3FC000
3F0000
3F0000
3F8000
3FC000
1FC000
0FC000
07C000
07C000
07C000
07C000
07C000
07C000
07C000
078000
0F8000
0F8000
0F8000
0F8000
0FC000
0FF800
0FF800
0FF000
07F000
07F000
01F000
ENDCHAR

STARTCHAR bar
ENCODING 124
SWIDTH 230 0
DWIDTH 11 0
BBX 7 47 4 -11
BITMAP
7C
7C
7C
7C
7C
7C
7C
7C
7C
7C
7C
7C
7C
7C
7C
7C
7C
7C
7C
7C
7C
7C
7C
7C
7C
7C
7C
7C
7C
7C
7C
7C
7C
7C
7C
7C
7C
7C
7C
7C
7C
7C
7C
7C
7C
7C
7C
ENDCHAR

STARTCHAR braceright
ENCODING 125
SWIDTH 319 0
DWIDTH 16 0
BBX 21 48 -5 -11
BITMAP
003E00
007F00
007F80
007FC0
007FC0
007FC0
000FC0
000FC0
000FC0
000F80
000F80
000F80
000F80
001F80
001F00
001F00
001F00
001F00
001F00
001F80
001FC0
001FE0
000FE0
0007E0
0007E0
001FE0
001FE0
003F00
007E00
007C00
007C00
00FC00
00F800
00F800
00F800
00F800
01F800
01F000
01F000
01F000
03F000
07F000
3FE000
3FE000
3FC000
3F8000
3F0000
7C0000
ENDCHAR

STARTCHAR asciitilde
ENCODING 126
SWIDTH 479 0
DWIDTH 24 0
BBX 25 9 1 13
BITMAP
07E00200
0FF80600
3FFF1E00
3FFFFE00
3FFFFE00
3FFFFE00
383FFE00
300FF800
2003F000
ENDCHAR

STARTCHAR space
ENCODING 160
SWIDTH 228 0
DWIDTH 14 0
BBX 0 0 0 0
BITMAP
ENDCHAR

STARTCHAR exclamdown
ENCODING 161
SWIDTH 273 0
DWIDTH 14 0
BBX 15 36 -1 -10
BITMAP
00F8
00F8
01F8
01F8
01F8
01F8
01F0
0000
0000
00E0
01E0
01E0
01E0
01C0
03C0
03C0
03C0
07C0
07C0
07C0
07C0
0FC0
0FC0
0F80
0F80
1F80
1F80
1F80
1F80
1F80
3F80
3F00
3F00
3F00
3F00
3F00
ENDCHAR

STARTCHAR cent
ENCODING 162
SWIDTH 456 0
DWIDTH 23 0
BBX 24 45 1 -10
BITMAP
000020
000038
000070
000070
000060
0000E0
0000E0
0000C0
000FC0
007FE0
00FFF0
01FFF8
03FFF8
07F7FC
0FE7FC
0FC77C
1F8E7C
1F8E60
1F0E00
3F1C00
3F1C00
3F1C00
3E3800
3E3800
3E3800
3E3000
3E71F8
3E71F8
3F63F0
3FE3F0
1FEFE0
1FFFE0
0FFFC0
0FFF80
07FF00
03FC00
038000
030000
070000
070000
060000
0E0000
0E0000
0C0000
0C0000
ENDCHAR

STARTCHAR sterling
ENCODING 163
SWIDTH 456 0
DWIDTH 23 0
BBX 27 38 0 -1
BITMAP
0007F000
000FFC00
003FFE00
003FFF00
007FFF00
00FF3F80
00FC1F80
00F80F80
01F80FC0
01F80FC0
01F00800
01F00000
01F00000
01F00000
01F00000
01F00000
01F00000
0FFF8000
0FFF8000
0FFF8000
1FFF8000
1FFF8000
00F80000
01F80000
01F00000
01F00000
03F00000
03E00000
07E00000
0FC00000
1FC00000
3FFC1800
7FFFF800
3FFFFC00
3FFFFC00
3FFFFC00
383FFC00
2007F000
ENDCHAR

STARTCHAR currency
ENCODING 164
SWIDTH 456 0
DWIDTH 23 0
BBX 24 24 1 6
BITMAP
0C0030
1E3E78
3FFFFC
3FFFFC
3FFFF8
1FFFF8
0FFFF0
0FC3F0
0F81F8
1F80F8
1F00F8
1F00F8
1F00F8
1F00F8
1F80F8
0F81F0
0FC3F0
0FFFF0
1FFFF8
1FFFFC
3FFFFC
3FFFFC
1E3E78
0C0030
ENDCHAR

STARTCHAR yen
ENCODING 165
SWIDTH 456 0
DWIDTH 23 0
BBX 29 36 0 0
BITMAP
07E007E0
07E00FC0
07E00FC0
07E01F80
03E01F80
03F03F00
03F03F00
03F07E00
01F07E00
01F8FC00
01F8F800
01F9F800
00F9F000
00FBF000
00FBE000
00FFE000
007FC000
1FFFFF00
1FFFFE00
1FFFFE00
1FFFFE00
003F0000
003E0000
003E0000
007E0000
3FFFFC00
3FFFFC00
7FFFFC00
7FFFFC00
007C0000
00FC0000
00FC0000
00FC0000
00FC0000
00F80000
00F80000
ENDCHAR

STARTCHAR brokenbar
ENCODING 166
SWIDTH 230 0
DWIDTH 11 0
BBX 7 47 4 -11
BITMAP
7C
7C
7C
7C
7C
7C
7C
7C
7C
7C
7C
7C
7C
7C
7C
7C
7C
7C
7C
00
00
00
00
00
00
00
00
00
7C
7C
7C
7C
7C
7C
7C
7C
7C
7C
7C
7C
7C
7C
7C
7C
7C
7C
7C
ENDCHAR

STARTCHAR section
ENCODING 167
SWIDTH 456 0
DWIDTH 23 0
BBX 25 48 0 -11
BITMAP
000FC000
003FF000
007FF800
00FFFC00
00FFFC00
01F8FE00
01F07E00
01F03E00
01F03E00
01F00000
01F80000
00F80000
00FC0000
00FE0000
01FF0000
03FF8000
07FFC000
0FDFE000
0F8FE000
1F07F000
1F03F800
1F03F800
1F01FC00
1F80FC00
1F807C00
0FC07C00
0FE07C00
0FF07C00
07F87800
03F8F800
01FDF800
01FFF000
00FFE000
007FC000
003F8000
001F8000
001FC000
000FC000
0E07C000
7E07C000
7E07C000
3F07C000
3F8FC000
1FFF8000
1FFF8000
0FFF0000
07FE0000
01F80000
ENDCHAR

STARTCHAR dieresis
ENCODING 168
SWIDTH 273 0
DWIDTH 14 0
BBX 17 6 2 30
BITMAP
3E1F00
3E1F00
3E1E00
3E3E00
3E3E00
3C3E00
ENDCHAR

STARTCHAR copyright
ENCODING 169
SWIDTH 604 0
DWIDTH 30 0
BBX 34 37 0 0
BITMAP
0003F00000
001FFE0000
007FFF0000
00FFFFC000
01F807E000
03E001F000
078000F000
0F00007800
0F01E03C00
1E07F81C00
1C0FFC1E00
3C1FFE0E00
383E1E0E00
383C0F0F00
78380C0700
7078000700
7078000700
7078000700
7078000700
7078000700
7078000700
7078080700
78380F0700
383C0E0E00
383E1E0E00
3C1FFE0E00
1C0FFC1E00
1E07F81C00
0F01C03C00
0F00007800
07C000F000
03E003F000
01F807E000
00FFFFC000
007FFF0000
001FFE0000
0003F00000
ENDCHAR

STARTCHAR ordfeminine
ENCODING 170
SWIDTH 303 0
DWIDTH 15 0
BBX 16 19 2 18
BITMAP
01F0
07FC
0FFC
1FFE
1E1E
1E1E
001E
003E
07FE
1FFC
3FFC
7E3C
787C
787C
78F8
7FF8
3FF8
3FBC
0E00
ENDCHAR

STARTCHAR guillemotleft
ENCODING 171
SWIDTH 456 0
DWIDTH 23 0
BBX 24 22 1 2
BITMAP
007C7C
00F8F8
00F9F8
01F1F0
03E3E0
07E7E0
0FCFC0
0F8F80
1F9F80
3F3F00
7E3E00
3E3E00
3F3E00
3F1F00
1F1F00
1F1F00
0F8F00
0F8F80
0F8F80
078780
078780
03C780
ENDCHAR

STARTCHAR logicalnot
ENCODING 172
SWIDTH 479 0
DWIDTH 24 0
BBX 23 17 2 10
BITMAP
7FFFFC
7FFFFC
7FFFFC
7FFFFC
7FFFFC
7FFFFC
0000FC
0000FC
0000FC
0000FC
0000FC
0000FC
0000FC
0000FC
0000FC
0000FC
0000FC
ENDCHAR

STARTCHAR hyphen
ENCODING 173
SWIDTH 273 0
DWIDTH 14 0
BBX 15 7 0 9
BITMAP
1FFC
1FFC
3FF8
3FF8
3FF8
3FF8
3FF8
ENDCHAR

STARTCHAR registered
ENCODING 174
SWIDTH 604 0
DWIDTH 30 0
BBX 34 38 0 -1
BITMAP
0003F00000
001FFC0000
007FFF0000
00FFFFC000
01F80FE000
03E003E000
07C000F000
0F80007800
0F00003C00
1E3FF03C00
1C3FF81C00
3C3FFC1E00
38383E0E00
38381E0E00
38381E0F00
70381E0700
70381E0700
70383C0700
703FFC0700
703FF80700
703FE00700
7038F00700
7038780700
7838780700
38383C0E00
38383C0E00
3C381E0E00
1C381E1C00
1E381F3C00
0F00003C00
0F80007800
07C000F000
03E003E000
01F80FE000
00FFFF8000
007FFF0000
001FFC0000
0003F00000
ENDCHAR

STARTCHAR macron
ENCODING 175
SWIDTH 273 0
DWIDTH 14 0
BBX 17 5 2 30
BITMAP
3FFE00
3FFE00
3FFE00
3FFE00
3FFC00
ENDCHAR

STARTCHAR degree
ENCODING 176
SWIDTH 328 0
DWIDTH 16 0
BBX 16 16 2 20
BITMAP
03C0
0FF0
0FF8
1FF8
3E7C
3C3C
381C
381C
381C
381C
3C3C
3E7C
1FF8
0FF8
0FF0
03C0
ENDCHAR

STARTCHAR plusminus
ENCODING 177
SWIDTH 479 0
DWIDTH 24 0
BBX 23 34 2 0
BITMAP
007C00
007C00
007C00
007C00
007C00
007C00
007C00
007C00
007C00
007C00
7FFFFC
7FFFFC
7FFFFC
7FFFFC
7FFFFC
7FFFFC
007C00
007C00
007C00
007C00
007C00
007C00
007C00
007C00
007C00
000000
000000
000000
7FFFFC
7FFFFC
7FFFFC
7FFFFC
7FFFFC
7FFFFC
ENDCHAR

STARTCHAR twosuperior
ENCODING 178
SWIDTH 273 0
DWIDTH 14 0
BBX 15 19 2 18
BITMAP
01C0
07F0
0FF8
1FFC
1E3C
1E3C
043C
007C
00F8
01F0
03F0
07E0
0FC0
0F80
1F00
3FF8
3FF8
7FF0
7FF0
ENDCHAR

STARTCHAR threesuperior
ENCODING 179
SWIDTH 273 0
DWIDTH 14 0
BBX 16 19 1 18
BITMAP
00F0
03F8
07FC
07FE
0F1E
0F1E
001E
00FC
00F8
00F8
01FC
003C
003C
3C3C
3C7C
1FF8
1FF0
0FE0
0380
ENDCHAR

STARTCHAR acute
ENCODING 180
SWIDTH 273 0
DWIDTH 14 0
BBX 13 8 6 29
BITMAP
03F0
07E0
07C0
0F80
1F00
1E00
3E00
3C00
ENDCHAR

STARTCHAR mu
ENCODING 181
SWIDTH 501 0
DWIDTH 25 0
BBX 28 36 -2 -10
BITMAP
01F807E0
01F807C0
01F807C0
01F80FC0
01F00FC0
01F00FC0
03F00FC0
03F00F80
03F00F80
03F01F80
03E01F80
07E01F80
07E01F80
07E01F00
07E01F00
07E03F00
07E03F00
0FE03F00
0FE07F00
0FE07E00
0FF0FE00
0FFFFE00
0FFFFE00
1FFFFE00
1FBFFC00
1F9F7C00
1F8C0000
1F000000
1F000000
3F000000
3F000000
3F000000
3F000000
3E000000
7E000000
7E000000
ENDCHAR

STARTCHAR paragraph
ENCODING 182
SWIDTH 456 0
DWIDTH 23 0
BBX 28 45 -1 -9
BITMAP
00FFFFC0
01FFFFC0
03FFFFC0
07FFFFC0
0FFFFFC0
0FFFFFC0
0FFF1F00
1FFF1F00
1FFF1F00
1FFF1F00
1FFF1F00
1FFF1F00
1FFF1F00
0FFF1F00
0FFF1F00
0FFF1F00
07FF1F00
03FF1F00
01FF1F00
007F1F00
001F1F00
001F1F00
001F1F00
001F1F00
001F1F00
001F1F00
001F1F00
001F1F00
001F1F00
001F1F00
001F1F00
001F1F00
001F1F00
001F1F00
001F1F00
001F1F00
001F1F00
001F1F00
001F1F00
001F1F00
001F1F00
001F1F00
001F1F00
001F1F00
001F1F00
ENDCHAR

STARTCHAR periodcentered
ENCODING 183
SWIDTH 228 0
DWIDTH 11 0
BBX 10 7 2 13
BITMAP
1F80
1F00
1F00
3F00
3F00
3F00
3F00
ENDCHAR

STARTCHAR cedilla
ENCODING 184
SWIDTH 273 0
DWIDTH 14 0
BBX 13 10 -1 -11
BITMAP
0780
07E0
0FF0
00F0
00F0
00F0
03E0
3FC0
3F80
7E00
ENDCHAR

STARTCHAR onesuperior
ENCODING 185
SWIDTH 273 0
DWIDTH 14 0
BBX 13 19 3 18
BITMAP
0070
00F0
01E0
07E0
1FE0
3FE0
3FE0
39C0
03C0
03C0
03C0
03C0
0780
0780
0780
0780
0780
0F00
0F00
ENDCHAR

STARTCHAR ordmasculine
ENCODING 186
SWIDTH 299 0
DWIDTH 15 0
BBX 17 18 2 19
BITMAP
03E000
07F800
0FFC00
1FFC00
3F3E00
3E1E00
3C1E00
7C1E00
781E00
781E00
783E00
783C00
787C00
7CFC00
3FF800
3FF000
1FE000
07C000
ENDCHAR

STARTCHAR guillemotright
ENCODING 187
SWIDTH 456 0
DWIDTH 23 0
BBX 23 22 0 2
BITMAP
03C3C0
03C3C0
03E3C0
03E3E0
01E3E0
01F1F0
01F1F0
01F1F0
01F9F8
00F8F8
00F8F8
00FCFC
01F9F8
01F1F0
03F3F0
07E7E0
07C7C0
0F8F80
1F9F00
1F1F00
3E3E00
7C7C00
ENDCHAR

STARTCHAR onequarter
ENCODING 188
SWIDTH 684 0
DWIDTH 34 0
BBX 33 38 3 -1
BITMAP
0070000E00
00F0001C00
01E0003C00
07E0003800
1FE0007000
3FE000F000
3FE000E000
39C001C000
03C003C000
03C0078000
03C0070000
03C00E0000
07801E0000
07801C0000
0780380000
0780780000
0780700000
0F00E00000
0F01E00000
0003C01E00
0003801E00
0007003E00
000F007C00
000E00FC00
001C01FC00
003C01DC00
003803BC00
007007B800
00F00F3800
01E01E3800
01C01C7800
03C03FFE00
07803FFE00
07003FFC00
0E00007000
1E0000F000
1C0000F000
380000E000
ENDCHAR

STARTCHAR onehalf
ENCODING 189
SWIDTH 684 0
DWIDTH 34 0
BBX 33 37 2 0
BITMAP
0030000E00
00F0001C00
01F0003C00
07F0003800
1FF0007000
1FE000F000
1FE001E000
19E001C000
01E0038000
01E0078000
03C0070000
03C00E0000
03C01E0000
03C03C0000
0380380000
0780700000
0780F00000
0781E00000
0001C07800
0003C1FC00
000783FE00
000707FF00
000E078F00
001E078F00
003C000F00
0038001F00
0070003E00
00F0007C00
00E000FC00
01C001F800
03C003F000
078003E000
070007C000
0E000FFE00
1E000FFC00
1C001FFC00
38001FFC00
ENDCHAR

STARTCHAR threequarters
ENCODING 190
SWIDTH 684 0
DWIDTH 34 0
BBX 35 37 1 0
BITMAP
00F00003C0
03F8000780
07FC000700
07FE000E00
0F1E001E00
0F1E001C00
001E003800
00FC007800
00FC00F000
00F800E000
01FC01C000
003C03C000
003C038000
3C3C070000
3C7C0E0000
1FF81E0000
1FF01C0000
0FE0380000
0380780000
0000F00780
0000E00F80
0001C01F00
0003C03F00
0003803F00
0007007F00
000F00FF00
001E01EE00
001C03CE00
0038079E00
00780F1E00
00F00FFF80
00E00FFF00
01C00FFF00
03C0003C00
0380003C00
0700003800
0F00003800
ENDCHAR

STARTCHAR questiondown
ENCODING 191
SWIDTH 501 0
DWIDTH 25 0
BBX 24 37 -1 -11
BITMAP
0003F0
0003F0
0003F0
0003F0
0003E0
0003E0
0007E0
000000
000000
0007C0
0007C0
0007C0
000FC0
001F80
001F80
003F00
007F00
00FE00
01FC00
03F800
07F000
0FE000
0FE000
1FC000
1F8000
3F0000
3F007C
3E00FC
3E00FC
3E01F8
3F01F8
1F87F0
1FFFF0
0FFFE0
0FFFC0
03FF80
00FE00
ENDCHAR

STARTCHAR Agrave
ENCODING 192
SWIDTH 592 0
DWIDTH 30 0
BBX 31 46 -2 0
BITMAP
00003E00
00003E00
00001F00
00001F00
00000F80
00000780
00000780
00000000
00000000
00000000
00003F80
00003F80
00007F80
00007F80
0000FFC0
0000FFC0
0001FFC0
0001FFC0
0003F7C0
0003F7C0
0007E7C0
0007E7E0
0007C7E0
000FC7E0
000FC7E0
001F83E0
001F83E0
003F03E0
003F03E0
007E03F0
007E03F0
00FC03F0
00FFFFF0
01FFFFF0
01FFFFF0
01FFFFF0
03FFFFF0
03FFFFF8
07E001F8
07E001F8
0FC001F8
0FC001F8
1F8000F8
1F8000F8
3F8000FC
3F0000FC
ENDCHAR

STARTCHAR Aacute
ENCODING 193
SWIDTH 592 0
DWIDTH 30 0
BBX 31 46 -2 0
BITMAP
000001F8
000001F0
000003E0
000007C0
00000780
00000F80
00000F00
00000000
00000000
00000000
00003F80
00003F80
00007F80
00007F80
0000FFC0
0000FFC0
0001FFC0
0001FFC0
0003F7C0
0003F7C0
0007E7C0
0007E7E0
0007C7E0
000FC7E0
000FC7E0
001F83E0
001F83E0
003F03E0
003F03E0
007E03F0
007E03F0
00FC03F0
00FFFFF0
01FFFFF0
01FFFFF0
01FFFFF0
03FFFFF0
03FFFFF8
07E001F8
07E001F8
0FC001F8
0FC001F8
1F8000F8
1F8000F8
3F8000FC
3F0000FC
ENDCHAR

STARTCHAR Acircumflex
ENCODING 194
SWIDTH 592 0
DWIDTH 30 0
BBX 31 46 -2 0
BITMAP
00000FC0
00001FC0
00003FC0
00007DE0
0000F9E0
0000F1E0
0001E0F0
00000000
00000000
00000000
00003F80
00003F80
00007F80
00007F80
0000FFC0
0000FFC0
0001FFC0
0001FFC0
0003F7C0
0003F7C0
0007E7C0
0007E7E0
0007C7E0
000FC7E0
000FC7E0
001F83E0
001F83E0
003F03E0
003F03E0
007E03F0
007E03F0
00FC03F0
00FFFFF0
01FFFFF0
01FFFFF0
01FFFFF0
03FFFFF0
03FFFFF8
07E001F8
07E001F8
0FC001F8
0FC001F8
1F8000F8
1F8000F8
3F8000FC
3F0000FC
ENDCHAR

STARTCHAR Atilde
ENCODING 195
SWIDTH 592 0
DWIDTH 30 0
BBX 31 45 -2 0
BITMAP
00003C18
00007F38
00007FF8
0000FFF8
0000E3F0
0000C0E0
00000000
00000000
00000000
00003F80
00003F80
00007F80
00007F80
0000FFC0
0000FFC0
0001FFC0
0001FFC0
0003F7C0
0003F7C0
0007E7C0
0007E7E0
0007C7E0
000FC7E0
000FC7E0
001F83E0
001F83E0
003F03E0
003F03E0
007E03F0
007E03F0
00FC03F0
00FFFFF0
01FFFFF0
01FFFFF0
01FFFFF0
03FFFFF0
03FFFFF8
07E001F8
07E001F8
0FC001F8
0FC001F8
1F8000F8
1F8000F8
3F8000FC
3F0000FC
ENDCHAR

STARTCHAR Adieresis
ENCODING 196
SWIDTH 592 0
DWIDTH 30 0
BBX 31 45 -2 0
BITMAP
0000F87C
0000F878
0000F8F8
0000F8F8
0000F0F8
0001F0F8
00000000
00000000
00000000
00003F80
00003F80
00007F80
00007F80
0000FFC0
0000FFC0
0001FFC0
0001FFC0
0003F7C0
0003F7C0
0007E7C0
0007E7C0
0007C7E0
000FC7E0
000FC7E0
001F83E0
001F83E0
003F03E0
003F03E0
007E03F0
007E03F0
00FC03F0
00FFFFF0
01FFFFF0
01FFFFF0
01FFFFF0
03FFFFF0
03FFFFF8
07E001F8
07E001F8
0FC001F8
0FC001F8
1F8000F8
1F8000F8
3F8000FC
3F0000FC
ENDCHAR

STARTCHAR Aring
ENCODING 197
SWIDTH 592 0
DWIDTH 30 0
BBX 32 48 -2 0
BITMAP
00000700
00001F80
00001FC0
000039C0
000030C0
000030C0
000039C0
00001FC0
00001F80
00000F00
00000000
00000000
00003F80
00003FC0
00007FC0
00007FC0
0000FFC0
0000FFC0
0001FFC0
0001FFC0
0003F7C0
0003F7E0
0007E7E0
0007E7E0
000FC7E0
000FC7E0
000FC3E0
001F83E0
001F83F0
003F03F0
003F03F0
007E03F0
007E03F0
00FC03F0
00FFFFF0
01FFFFF0
01FFFFF8
03FFFFF8
03FFFFF8
03FFFFF8
07E001F8
07E001F8
0FC000F8
0FC000FC
1F8000FC
1F8000FC
3F0000FC
3F0000FC
ENDCHAR

STARTCHAR AE
ENCODING 198
SWIDTH 820 0
DWIDTH 41 0
BBX 48 36 -3 0
BITMAP
00001FFFFFFC
00003FFFFFFC
00003FFFFFFC
00007FFFFFFC
00007FFFFFFC
0000FFFFFFF8
0000FC7E0000
0001F87E0000
0001F87E0000
0003F07C0000
0003F07C0000
0007E0FC0000
0007E0FC0000
000FC0FC0000
000FC0FFFFE0
001F80FFFFE0
001F80FFFFE0
001F01FFFFE0
003F01FFFFE0
003F01FFFFE0
007E01F80000
007FFFF00000
00FFFFF00000
00FFFFF00000
01FFFFF00000
01FFFFF00000
03FFFFF00000
03F003E00000
07E003E00000
07E007E00000
0FC007FFFFC0
0FC007FFFFC0
1FC007FFFFC0
1F8007FFFFC0
3F8007FFFFC0
3F000FFFFFC0
ENDCHAR

STARTCHAR Ccedilla
ENCODING 199
SWIDTH 592 0
DWIDTH 30 0
BBX 29 48 3 -11
BITMAP
000FF000
003FFC00
007FFF00
01FFFF00
03FFFF80
03FFFFC0
07FE3FC0
0FF80FE0
0FE00FE0
1FE007E0
1FC007E0
1F8007E0
3F800000
3F000000
3F000000
3F000000
7F000000
7E000000
7E000000
7E000000
7E000000
7E000000
7E000000
7E000000
7E000C00
7E001FC0
7E001FC0
3F001F80
3F003F80
3F807F00
3FC0FF00
1FE3FE00
1FFFFE00
0FFFFC00
07FFF800
07FFF000
01FFC000
00FF0000
003C0000
007F0000
007F8000
00078000
00078000
00078000
000F8000
03FF0000
03FE0000
07F80000
ENDCHAR

STARTCHAR Egrave
ENCODING 200
SWIDTH 547 0
DWIDTH 27 0
BBX 31 46 0 0
BITMAP
0001F000
0001F800
0000F800
0000F800
00007C00
00003C00
00003C00
00000000
00000000
00000000
00FFFFFC
00FFFFF8
01FFFFF8
01FFFFF8
01FFFFF8
01FFFFF8
01F80000
01F80000
03F00000
03F00000
03F00000
03F00000
03F00000
03F00000
07FFFFE0
07FFFFC0
07FFFFC0
07FFFFC0
07FFFFC0
07FFFFC0
0FC00000
0FC00000
0FC00000
0FC00000
0FC00000
0FC00000
1F800000
1F800000
1F800000
1F800000
1FFFFFC0
1FFFFF80
3FFFFF80
3FFFFF80
3FFFFF80
3FFFFF80
ENDCHAR

STARTCHAR Eacute
ENCODING 201
SWIDTH 547 0
DWIDTH 27 0
BBX 31 46 0 0
BITMAP
00000FC0
00000F80
00001F00
00001E00
00003C00
00007C00
00007800
00000000
00000000
00000000
00FFFFFC
00FFFFF8
01FFFFF8
01FFFFF8
01FFFFF8
01FFFFF8
01F80000
01F80000
03F00000
03F00000
03F00000
03F00000
03F00000
03F00000
07FFFFE0
07FFFFC0
07FFFFC0
07FFFFC0
07FFFFC0
07FFFFC0
0FC00000
0FC00000
0FC00000
0FC00000
0FC00000
0FC00000
1F800000
1F800000
1F800000
1F800000
1FFFFFC0
1FFFFF80
3FFFFF80
3FFFFF80
3FFFFF80
3FFFFF80
ENDCHAR

STARTCHAR Ecircumflex
ENCODING 202
SWIDTH 547 0
DWIDTH 27 0
BBX 31 46 0 0
BITMAP
00007E00
0000FE00
0001FE00
0003EF00
0007CF00
00078F00
000F0780
00000000
00000000
00000000
00FFFFFC
00FFFFF8
01FFFFF8
01FFFFF8
01FFFFF8
01FFFFF8
01F80000
01F80000
03F00000
03F00000
03F00000
03F00000
03F00000
03F00000
07FFFFE0
07FFFFC0
07FFFFC0
07FFFFC0
07FFFFC0
07FFFFC0
0FC00000
0FC00000
0FC00000
0FC00000
0FC00000
0FC00000
1F800000
1F800000
1F800000
1F800000
1FFFFFC0
1FFFFF80
3FFFFF80
3FFFFF80
3FFFFF80
3FFFFF80
ENDCHAR

STARTCHAR Edieresis
ENCODING 203
SWIDTH 547 0
DWIDTH 27 0
BBX 31 45 0 0
BITMAP
0007C3E0
0007C3C0
0007C7C0
0007C7C0
000787C0
000F87C0
00000000
00000000
00000000
00FFFFFC
00FFFFF8
00FFFFF8
01FFFFF8
01FFFFF8
01FFFFF8
01F80000
01F80000
03F00000
03F00000
03F00000
03F00000
03F00000
03F00000
07FFFFE0
07FFFFC0
07FFFFC0
07FFFFC0
07FFFFC0
07FFFFC0
0FC00000
0FC00000
0FC00000
0FC00000
0FC00000
0FC00000
1F800000
1F800000
1F800000
1F800000
1FFFFFC0
1FFFFF80
3FFFFF80
3FFFFF80
3FFFFF80
3FFFFF80
ENDCHAR

STARTCHAR Igrave
ENCODING 204
SWIDTH 228 0
DWIDTH 11 0
BBX 16 46 0 0
BITMAP
01F0
01F0
00F8
00F8
0078
007C
003C
0000
0000
0000
01F8
01F8
01F8
01F8
01F8
01F8
03F0
03F0
03F0
03F0
03F0
03F0
07E0
07E0
07E0
07E0
07E0
07E0
0FC0
0FC0
0FC0
0FC0
0FC0
0FC0
1F80
1F80
1F80
1F80
1F80
1F00
3F00
3F00
3F00
3F00
3F00
3E00
ENDCHAR

STARTCHAR Iacute
ENCODING 205
SWIDTH 228 0
DWIDTH 11 0
BBX 20 46 0 0
BITMAP
000FC0
001F80
001F00
003E00
003C00
007800
007800
000000
000000
000000
01F800
01F800
01F800
01F800
01F800
01F800
03F000
03F000
03F000
03F000
03F000
03F000
07E000
07E000
07E000
07E000
07E000
07E000
0FC000
0FC000
0FC000
0FC000
0FC000
0FC000
1F8000
1F8000
1F8000
1F8000
1F8000
1F0000
3F0000
3F0000
3F0000
3F0000
3F0000
3E0000
ENDCHAR

STARTCHAR Icircumflex
ENCODING 206
SWIDTH 228 0
DWIDTH 11 0
BBX 18 46 0 0
BITMAP
00FE00
00FE00
01FE00
03FE00
07CF00
0F8F00
1F0F00
000000
000000
000000
01F800
01F800
01F800
01F800
01F800
01F800
03F000
03F000
03F000
03F000
03F000
03F000
07E000
07E000
07E000
07E000
07E000
07E000
0FC000
0FC000
0FC000
0FC000
0FC000
0FC000
1F8000
1F8000
1F8000
1F8000
1F8000
1F0000
3F0000
3F0000
3F0000
3F0000
3F0000
3E0000
ENDCHAR

STARTCHAR Idieresis
ENCODING 207
SWIDTH 228 0
DWIDTH 11 0
BBX 20 45 0 0
BITMAP
07C3C0
07C7C0
07C7C0
0787C0
0F87C0
0F87C0
000000
000000
000000
01F800
01F800
01F800
01F800
01F800
01F800
03F000
03F000
03F000
03F000
03F000
03F000
07E000
07E000
07E000
07E000
07E000
07E000
0FC000
0FC000
0FC000
0FC000
0FC000
0FC000
1F8000
1F8000
1F8000
1F8000
1F8000
1F0000
3F0000
3F0000
3F0000
3F0000
3F0000
3E0000
ENDCHAR

STARTCHAR Gbreve
ENCODING 208
SWIDTH 638 0
DWIDTH 32 0
BBX 31 47 3 -1
BITMAP
000E0300
000E0700
00070F00
0007FE00
0003FC00
0003F800
0000E000
00000000
00000000
0003F800
001FFF00
003FFF80
00FFFFC0
01FFFFE0
01FFFFF0
03FE0FF0
07F807F8
07F003F8
0FE001F8
0FC001F8
1F8000FC
1F800000
1F000000
3F000000
3F000000
3E000000
3E000000
7E01FFF0
7E01FFF0
7E01FFF0
7E01FFF0
7E01FFF0
7E01FFF0
7E0003E0
7E0003E0
7E0003E0
3F0007E0
3F0007E0
3F8007E0
3F801FC0
1FE0FFC0
1FFFFFC0
0FFFFFC0
07FFFF80
03FFFE00
01FFF800
007FC000
ENDCHAR

STARTCHAR Ntilde
ENCODING 209
SWIDTH 592 0
DWIDTH 30 0
BBX 33 45 0 0
BITMAP
0000F06000
0001FCE000
0001FFE000
0003FFE000
00038FC000
0003038000
0000000000
0000000000
0000000000
00FC003E00
00FC003E00
00FE007E00
00FE007E00
01FE007E00
01FF007C00
01FF007C00
01FF007C00
01FF80FC00
01FF80FC00
03FF80FC00
03FFC0F800
03FFC0F800
03EFC1F800
03E7E1F800
03E7E1F800
07E7E1F800
07E3F1F000
07E3F1F000
07C3F3F000
07C1F3F000
0FC1FBF000
0FC1FBF000
0FC0FBE000
0FC0FFE000
0F80FFE000
0F807FE000
1F807FE000
1F807FE000
1F803FC000
1F803FC000
1F003FC000
1F003FC000
3F001FC000
3F001FC000
3F001F8000
ENDCHAR

STARTCHAR Ograve
ENCODING 210
SWIDTH 638 0
DWIDTH 32 0
BBX 32 48 2 -1
BITMAP
0003F000
0001F000
0001F800
0000F800
00007800
00007C00
00003C00
00003C00
00000000
00000000
0003FC00
001FFF00
003FFF80
00FFFFC0
01FFFFE0
03FFFFF0
03FE1FF0
07F807F8
0FF003F8
0FE001F8
0FC001FC
1FC001FC
1F8000FC
1F8000FC
3F0000FC
3F0000FC
3F0000FC
3F0000FC
7E0000FC
7E0000FC
7E0001FC
7E0001F8
7E0001F8
7E0001F8
7E0003F8
7E0003F0
7F0007F0
3F0007F0
3F800FE0
3F801FE0
3FC03FC0
1FF0FF80
1FFFFF00
0FFFFF00
07FFFC00
03FFF800
01FFF000
003F8000
ENDCHAR

STARTCHAR Oacute
ENCODING 211
SWIDTH 638 0
DWIDTH 32 0
BBX 32 48 2 -1
BITMAP
00000FE0
00000FC0
00001F80
00001F00
00003E00
00003C00
00007800
0000F000
00000000
00000000
0003FC00
001FFF00
003FFF80
00FFFFC0
01FFFFE0
03FFFFF0
03FE1FF0
07F807F8
0FF003F8
0FE001F8
0FC001FC
1FC001FC
1F8000FC
1F8000FC
3F0000FC
3F0000FC
3F0000FC
3F0000FC
7E0000FC
7E0000FC
7E0001FC
7E0001F8
7E0001F8
7E0001F8
7E0003F8
7E0003F0
7F0007F0
3F0007F0
3F800FE0
3F801FE0
3FC03FC0
1FF0FF80
1FFFFF00
0FFFFF00
07FFFC00
03FFF800
01FFF000
003F8000
ENDCHAR

STARTCHAR Ocircumflex
ENCODING 212
SWIDTH 638 0
DWIDTH 32 0
BBX 32 47 2 -1
BITMAP
0000FE00
0000FE00
0001FE00
0003EF00
0007CF00
000F8F00
001F0780
00000000
00000000
0003F800
001FFE00
003FFF80
00FFFFC0
01FFFFE0
03FFFFF0
03FE1FF0
07F807F8
0FF003F8
0FE001F8
0FC001FC
1FC001FC
1F8000FC
1F8000FC
3F0000FC
3F0000FC
3F0000FC
3F0000FC
7E0000FC
7E0000FC
7E0001FC
7E0001F8
7E0001F8
7E0001F8
7E0003F8
7E0003F0
7F0007F0
3F0007F0
3F800FE0
3F801FE0
3FC03FC0
1FF0FF80
1FFFFF00
0FFFFF00
07FFFC00
03FFF800
01FFF000
003F8000
ENDCHAR

STARTCHAR Otilde
ENCODING 213
SWIDTH 638 0
DWIDTH 32 0
BBX 32 47 2 -1
BITMAP
0001E0C0
0003F9C0
0007FFC0
0007FFC0
00073F80
00060F00
00000000
00000000
00000000
0003FC00
001FFF00
003FFF80
00FFFFC0
01FFFFE0
03FFFFF0
03FE1FF0
07F807F8
0FF003F8
0FE001F8
0FC001FC
1FC001FC
1F8000FC
1F8000FC
3F0000FC
3F0000FC
3F0000FC
3F0000FC
7E0000FC
7E0000FC
7E0001FC
7E0001F8
7E0001F8
7E0001F8
7E0003F8
7E0003F0
7F0007F0
3F0007F0
3F800FE0
3F801FE0
3FC03FC0
1FF0FF80
1FFFFF00
0FFFFF00
07FFFC00
03FFF800
01FFF000
003F8000
ENDCHAR

STARTCHAR Odieresis
ENCODING 214
SWIDTH 638 0
DWIDTH 32 0
BBX 32 47 2 -1
BITMAP
0007C3E0
0007C3E0
0007C7C0
0007C7C0
000F87C0
000F87C0
00000000
00000000
00000000
0003FC00
001FFF00
003FFF80
00FFFFC0
01FFFFE0
03FFFFF0
03FE1FF0
07F807F8
0FF003F8
0FE001F8
0FC001FC
1FC001FC
1F8000FC
1F8000FC
3F0000FC
3F0000FC
3F0000FC
3F0000FC
7E0000FC
7E0000FC
7E0001FC
7E0001F8
7E0001F8
7E0001F8
7E0003F8
7E0003F0
7F0007F0
3F0007F0
3F800FE0
3F801FE0
3FC03FC0
1FF0FF80
1FFFFF00
0FFFFF00
07FFFC00
03FFF800
01FFF000
003F8000
ENDCHAR

STARTCHAR multiply
ENCODING 215
SWIDTH 479 0
DWIDTH 24 0
BBX 23 24 2 6
BITMAP
040000
040040
0E00E0
1F01F0
3F83F8
3FC3F8
1FC7F0
0FEFE0
07FFC0
07FF80
03FF80
01FF00
00FE00
01FF00
03FF80
07FFC0
0FFFE0
0FEFE0
1FC7F0
3F83F8
3F03F8
1F01F0
0E00E0
040040
ENDCHAR

STARTCHAR Oslash
ENCODING 216
SWIDTH 638 0
DWIDTH 32 0
BBX 33 42 1 -3
BITMAP
0000000800
0000001C00
0001FC1E00
000FFFBE00
001FFFFC00
007FFFF800
00FFFFF800
01FFFFF800
01FF0FF800
03FC03FC00
07F807FC00
07F007FC00
07E00FFC00
0FE01FFE00
0FC01E7E00
1FC03E7E00
1F807C7E00
1F80787E00
1F80F87E00
1F81F07E00
3F01E07E00
3F03E07E00
3F07C07E00
3F0780FC00
3F0F80FC00
3F1F00FC00
3F1E01FC00
3F3E01F800
3FFC03F800
1FF803F000
1FF807F000
1FF00FE000
1FE01FE000
0FF87FC000
0FFFFF8000
07FFFF0000
0FFFFE0000
1FFFFC0000
1EFFF00000
3E1FC00000
1C00000000
0800000000
ENDCHAR

STARTCHAR Ugrave
ENCODING 217
SWIDTH 592 0
DWIDTH 30 0
BBX 30 47 3 -1
BITMAP
0003E000
0001F000
0001F000
0000F000
0000F800
00007800
00007800
00000000
00000000
00000000
07E001F8
07E003F0
07E003F0
07E003F0
0FC003F0
0FC003F0
0FC003F0
0FC007E0
0FC007E0
0FC007E0
1F8007E0
1F8007E0
1F8007E0
1F800FC0
1F800FC0
1F800FC0
3F000FC0
3F000FC0
3F000FC0
3F001F80
3F001F80
3F001F80
7E001F80
7E001F80
7E003F80
7E003F00
7E003F00
7E007F00
7F007E00
3F00FE00
3FC3FE00
3FFFFC00
1FFFF800
1FFFF000
0FFFE000
03FFC000
00FF0000
ENDCHAR

STARTCHAR Uacute
ENCODING 218
SWIDTH 592 0
DWIDTH 30 0
BBX 30 47 3 -1
BITMAP
00001F80
00003F00
00003E00
00007C00
00007800
0000F000
0001E000
00000000
00000000
00000000
07E001F8
07E003F0
07E003F0
07E003F0
0FC003F0
0FC003F0
0FC003F0
0FC007E0
0FC007E0
0FC007E0
1F8007E0
1F8007E0
1F8007E0
1F800FC0
1F800FC0
1F800FC0
3F000FC0
3F000FC0
3F000FC0
3F001F80
3F001F80
3F001F80
7E001F80
7E001F80
7E003F80
7E003F00
7E003F00
7E007F00
7F007E00
3F00FE00
3FC3FE00
3FFFFC00
1FFFF800
1FFFF000
0FFFE000
03FFC000
00FF0000
ENDCHAR

STARTCHAR Ucircumflex
ENCODING 219
SWIDTH 592 0
DWIDTH 30 0
BBX 30 47 3 -1
BITMAP
0000FC00
0001FC00
0003FE00
0007DE00
00079E00
000F0F00
001F0F00
00000000
00000000
00000000
07E001F8
07E003F0
07E003F0
07E003F0
0FC003F0
0FC003F0
0FC003F0
0FC007E0
0FC007E0
0FC007E0
1F8007E0
1F8007E0
1F8007E0
1F800FC0
1F800FC0
1F800FC0
3F000FC0
3F000FC0
3F000FC0
3F001F80
3F001F80
3F001F80
7E001F80
7E001F80
7E003F80
7E003F00
7E003F00
7E007F00
7F007E00
3F00FE00
3FC3FE00
3FFFFC00
1FFFF800
1FFFF000
0FFFE000
03FFC000
00FF0000
ENDCHAR

STARTCHAR Udieresis
ENCODING 220
SWIDTH 592 0
DWIDTH 30 0
BBX 30 46 3 -1
BITMAP
000787C0
000F87C0
000F8780
000F8F80
000F8F80
000F0F80
00000000
00000000
00000000
07E001F8
07E003F0
07E003F0
07E003F0
0FC003F0
0FC003F0
0FC003F0
0FC007E0
0FC007E0
0FC007E0
1F8007E0
1F8007E0
1F8007E0
1F800FC0
1F800FC0
1F800FC0
3F000FC0
3F000FC0
3F000FC0
3F001F80
3F001F80
3F001F80
7E001F80
7E001F80
7E003F80
7E003F00
7E003F00
7E007F00
7F007E00
3F00FE00
3FC3FE00
3FFFFC00
1FFFF800
1FFFF000
0FFFE000
03FFC000
00FF0000
ENDCHAR

STARTCHAR Idotaccent
ENCODING 221
SWIDTH 228 0
DWIDTH 11 0
BBX 16 46 0 0
BITMAP
00FC
00FC
00FC
00FC
00F8
01F8
0000
0000
0000
0000
01F8
01F8
01F8
01F8
01F8
01F8
03F0
03F0
03F0
03F0
03F0
03F0
07E0
07E0
07E0
07E0
07E0
07E0
0FC0
0FC0
0FC0
0FC0
0FC0
0FC0
1F80
1F80
1F80
1F80
1F80
1F00
3F00
3F00
3F00
3F00
3F00
3E00
ENDCHAR

STARTCHAR Scedilla
ENCODING 222
SWIDTH 547 0
DWIDTH 27 0
BBX 28 47 1 -10
BITMAP
000FE000
003FFC00
007FFE00
00FFFF00
01FFFF80
03FFFFC0
03F83FC0
03F00FC0
07E00FE0
07E007E0
07E007E0
07E00000
07F00000
07F80000
03FE0000
03FF8000
01FFE000
01FFF000
00FFFC00
003FFE00
001FFE00
0007FF00
0001FF00
00007F80
00003F80
1E003F80
3E001F80
3F001F80
3F001F80
3F003F80
3F803F00
3FE1FF00
1FFFFF00
1FFFFE00
0FFFFC00
07FFF800
01FFE000
003F8000
003E0000
007F0000
000F8000
00078000
00078000
000F0000
01FF0000
01FC0000
03F00000
ENDCHAR

STARTCHAR germandbls
ENCODING 223
SWIDTH 501 0
DWIDTH 25 0
BBX 26 38 0 -1
BITMAP
0007F000
001FFC00
003FFE00
007FFE00
00FFFF00
00FE7F00
01FC3F00
01F83F00
01F83F00
03F03F00
03F07E00
03F07E00
03F0FC00
03E1F800
07E1F800
07E3F000
07E3F000
07E3F000
07E3F000
07C3F800
0FC3F800
0FC1FC00
0FC1FE00
0FC0FE00
0FC0FE00
0F807F00
1F807F00
1F803F00
1F803F00
1F803F00
1F043F00
1F1C7F00
3F3FFE00
3F3FFE00
3F3FFC00
3F1FFC00
3E0FF800
0003E000
ENDCHAR

STARTCHAR agrave
ENCODING 224
SWIDTH 456 0
DWIDTH 23 0
BBX 23 38 0 -1
BITMAP
001F00
001F80
000F80
000F80
0007C0
0003C0
0003C0
000000
000000
000000
003F80
00FFE0
01FFF0
03FFF8
07FFF8
07E1FC
07C0FC
07C0FC
0000FC
0000FC
0001F8
00FFF8
07FFF8
0FFFF8
1FFFF8
1FF9F8
3F81F0
3F01F0
3E01F0
3E03F0
3E03F0
3F07F0
3F9FF0
3FFFF0
1FFFF0
1FFBF0
0FF3F0
07E000
ENDCHAR

STARTCHAR aacute
ENCODING 225
SWIDTH 456 0
DWIDTH 23 0
BBX 24 38 0 -1
BITMAP
0000FC
0000F8
0001F8
0001F0
0003E0
0003C0
000780
000000
000000
000000
003F80
00FFE0
01FFF0
03FFF8
07FFF8
07E1FC
07C0FC
07C0FC
0000FC
0000FC
0001F8
00FFF8
07FFF8
0FFFF8
1FFFF8
1FF9F8
3F81F0
3F01F0
3E01F0
3E03F0
3E03F0
3F07F0
3F9FF0
3FFFF0
1FFFF0
1FFBF0
0FF3F0
07E000
ENDCHAR

STARTCHAR acircumflex
ENCODING 226
SWIDTH 456 0
DWIDTH 23 0
BBX 23 38 0 -1
BITMAP
0007E0
000FE0
001FE0
003EF0
003CF0
0078F0
00F878
000000
000000
000000
003F80
00FFE0
01FFF0
03FFF8
07FFF8
07E1FC
07C0FC
07C0FC
0000FC
0000FC
0001F8
00FFF8
07FFF8
0FFFF8
1FFFF8
1FF9F8
3F81F0
3F01F0
3E01F0
3E03F0
3E03F0
3F07F0
3F9FF0
3FFFF0
1FFFF0
1FFBF0
0FF3F0
07E000
ENDCHAR

STARTCHAR atilde
ENCODING 227
SWIDTH 456 0
DWIDTH 23 0
BBX 24 36 0 -1
BITMAP
001E0C
003F9C
003FFC
007FFC
0071F8
006070
000000
000000
003F80
00FFE0
01FFF0
03FFF8
07FFF8
07E1FC
07C0FC
07C0FC
0000FC
0000FC
0001F8
00FFF8
07FFF8
0FFFF8
1FFFF8
1FF9F8
3F81F0
3F01F0
3E01F0
3E03F0
3E03F0
3F07F0
3F9FF0
3FFFF0
1FFFF0
1FFBF0
0FF3F0
07E000
ENDCHAR

STARTCHAR adieresis
ENCODING 228
SWIDTH 456 0
DWIDTH 23 0
BBX 24 37 0 -1
BITMAP
007C3E
007C3E
007C7C
007C7C
007C7C
00787C
000000
000000
000000
001F80
00FFE0
01FFF0
03FFF8
07FFF8
07E1FC
07C0FC
07C0FC
0000FC
0000FC
0001F8
00FFF8
07FFF8
0FFFF8
1FFFF8
1FF9F8
3F81F0
3F01F0
3E01F0
3E03F0
3E03F0
3F07F0
3F9FF0
3FFFF0
1FFFF0
1FFBF0
0FF3F0
07E000
ENDCHAR

STARTCHAR aring
ENCODING 229
SWIDTH 456 0
DWIDTH 23 0
BBX 23 39 1 -1
BITMAP
000700
000F80
000FC0
0018C0
0018C0
0018C0
0018C0
000FC0
000F80
000200
000000
001F00
00FFC0
01FFE0
03FFF0
07FFF8
07E1F8
07C0F8
07C0F8
0000F8
0000F8
0003F8
00FFF8
07FFF8
0FFFF0
1FFFF0
1FF1F0
3F83F0
3F03F0
3E03E0
3E03E0
3E07E0
3F0FE0
3F9FE0
3FFFE0
1FFFE0
1FFBE0
0FF3E0
07C000
ENDCHAR

STARTCHAR ae
ENCODING 230
SWIDTH 729 0
DWIDTH 36 0
BBX 38 28 -1 -1
BITMAP
001FC0FC00
00FFE1FF00
01FFF7FF80
03FFFFFFC0
03FFFFFFE0
07F0FF87E0
07E07F03F0
0FC07E03F0
00007E01F0
00007C01F0
0000FC01F0
007FFC01F0
03FFFFFFF0
0FFFFFFFF0
1FFFFFFFF0
1FF0FFFFF0
1F80F80000
3F01F80000
3E01FC0000
3E03FC0200
3E03FC07E0
3F07FE0FE0
3F9FBF9FC0
3FFF9FFF80
1FFF1FFF80
1FFE0FFF00
0FFC07FC00
03F003F800
ENDCHAR

STARTCHAR ccedilla
ENCODING 231
SWIDTH 456 0
DWIDTH 23 0
BBX 24 37 1 -10
BITMAP
003F80
00FFE0
01FFF0
03FFF8
07FFF8
0FF1FC
0FC0FC
1FC0FC
1F807C
3F0000
3F0000
3F0000
3F0000
7E0000
7E0000
7E0000
7E0000
7E0180
7E01F8
7E03F0
3F07F0
3F8FE0
3FFFE0
1FFFC0
0FFF80
0FFF00
03FE00
00F000
00F800
01FC00
003C00
001C00
001C00
007C00
07F800
0FF000
0FC000
ENDCHAR

STARTCHAR egrave
ENCODING 232
SWIDTH 456 0
DWIDTH 23 0
BBX 23 38 2 -1
BITMAP
003E00
001F00
001F00
000F00
000F80
000780
0003C0
000000
000000
000000
003F00
00FF80
03FFE0
07FFE0
0FFFF0
0FE3F0
1F81F8
1F81F8
3F00F8
3F00F8
3F00F8
3E00F8
3FFFF8
7FFFF8
7FFFF8
7FFFF8
7E0000
7E0000
3E0000
3E0180
3F03F0
3F03F0
1F8FE0
1FFFC0
0FFFC0
07FF80
03FF00
00FC00
ENDCHAR

STARTCHAR eacute
ENCODING 233
SWIDTH 456 0
DWIDTH 23 0
BBX 23 38 2 -1
BITMAP
0000FC
0001F8
0001F0
0003E0
0007C0
000780
000F00
000000
000000
000000
003F00
00FF80
03FFE0
07FFE0
0FFFF0
0FE3F0
1F81F8
1F81F8
3F00F8
3F00F8
3F00F8
3E00F8
3FFFF8
7FFFF8
7FFFF8
7FFFF8
7E0000
7E0000
3E0000
3E0180
3F03F0
3F03F0
1F8FE0
1FFFC0
0FFFC0
07FF80
03FF00
00FC00
ENDCHAR

STARTCHAR ecircumflex
ENCODING 234
SWIDTH 456 0
DWIDTH 23 0
BBX 23 38 2 -1
BITMAP
000FC0
001FC0
001FE0
003DE0
0079E0
00F8F0
01F0F0
000000
000000
000000
003F00
00FF80
03FFE0
07FFE0
0FFFF0
0FE3F0
1F81F8
1F81F8
3F00F8
3F00F8
3F00F8
3E00F8
3FFFF8
7FFFF8
7FFFF8
7FFFF8
7E0000
7E0000
3E0000
3E0180
3F03F0
3F03F0
1F8FE0
1FFFC0
0FFFC0
07FF80
03FF00
00FC00
ENDCHAR

STARTCHAR edieresis
ENCODING 235
SWIDTH 456 0
DWIDTH 23 0
BBX 23 37 2 -1
BITMAP
007C7C
00787C
00787C
00F878
00F8F8
00F8F8
000000
000000
000000
003E00
00FF80
03FFC0
07FFE0
07FFF0
0FE3F0
1F81F8
1F81F8
3F00F8
3F00F8
3F00F8
3E00F8
3FFFF8
7FFFF8
7FFFF8
7FFFF8
7E0000
7E0000
3E0000
3E0180
3F03F0
3F03F0
1F8FE0
1FFFC0
0FFFC0
07FF80
03FF00
00FC00
ENDCHAR

STARTCHAR igrave
ENCODING 236
SWIDTH 228 0
DWIDTH 11 0
BBX 15 37 0 0
BITMAP
07E0
03E0
01F0
01F0
00F0
00F8
0078
0078
0000
0000
0000
03F0
03F0
03E0
07E0
07E0
07E0
07E0
07C0
07C0
0FC0
0FC0
0FC0
0FC0
0F80
0F80
1F80
1F80
1F80
1F80
1F00
1F00
3F00
3F00
3F00
3F00
3E00
ENDCHAR

STARTCHAR iacute
ENCODING 237
SWIDTH 228 0
DWIDTH 11 0
BBX 19 37 0 0
BITMAP
000FC0
001F80
003F00
003E00
007C00
007800
00F000
00E000
000000
000000
000000
03F000
03F000
03E000
07E000
07E000
07E000
07E000
07C000
07C000
0FC000
0FC000
0FC000
0FC000
0F8000
0F8000
1F8000
1F8000
1F8000
1F8000
1F0000
1F0000
3F0000
3F0000
3F0000
3F0000
3E0000
ENDCHAR

STARTCHAR icircumflex
ENCODING 238
SWIDTH 228 0
DWIDTH 11 0
BBX 17 36 0 0
BITMAP
00FC00
01FC00
03FC00
07DE00
0F9E00
1F1E00
1E0F00
000000
000000
000000
03F000
03F000
03E000
07E000
07E000
07E000
07E000
07C000
07C000
0FC000
0FC000
0FC000
0FC000
0F8000
0F8000
1F8000
1F8000
1F8000
1F8000
1F0000
1F0000
3F0000
3F0000
3F0000
3F0000
3E0000
ENDCHAR

STARTCHAR idieresis
ENCODING 239
SWIDTH 228 0
DWIDTH 11 0
BBX 19 36 0 0
BITMAP
0F87C0
0F8780
0F8F80
0F8F80
0F0F80
1F0F80
000000
000000
000000
000000
03F000
03F000
03E000
07E000
07E000
07E000
07E000
07C000
07C000
0FC000
0FC000
0FC000
0FC000
0F8000
0F8000
1F8000
1F8000
1F8000
1F8000
1F0000
1F0000
3F0000
3F0000
3F0000
3F0000
3E0000
ENDCHAR

STARTCHAR gbreve
ENCODING 240
SWIDTH 501 0
DWIDTH 25 0
BBX 28 47 -1 -11
BITMAP
001C0E00
001C0E00
001E1C00
000FFC00
000FF800
0007F000
0001C000
00000000
00000000
001E0000
007F87C0
00FFC7C0
01FFEFC0
03FFFFC0
03F8FF80
07F07F80
07E03F80
0FC03F80
0FC03F80
0FC03F80
0F803F00
0F803F00
1F803F00
1F803F00
1F803F00
1F803F00
1F807E00
1F807E00
0FC0FE00
0FC1FE00
0FE3FE00
0FFFFE00
07FFFC00
07FFFC00
03FEFC00
01F8FC00
0000FC00
0000F800
3E00F800
3F01F800
3F01F800
3F87F000
1FFFF000
1FFFE000
0FFFC000
07FF8000
01FE0000
ENDCHAR

STARTCHAR ntilde
ENCODING 241
SWIDTH 501 0
DWIDTH 25 0
BBX 25 35 0 0
BITMAP
000F0600
001FCE00
001FFE00
003FFE00
0038FC00
00303800
00000000
00000000
0001F800
03E3FC00
03EFFE00
07FFFE00
07FFFF00
07FC7F00
07F83F00
07F03F00
07E03F00
0FE03F00
0FC03F00
0FC03E00
0FC03E00
0F807E00
0F807E00
1F807E00
1F807E00
1F807C00
1F80FC00
1F00FC00
1F00FC00
3F00FC00
3F00FC00
3F00F800
3F01F800
3E01F800
3E01F800
ENDCHAR

STARTCHAR ograve
ENCODING 242
SWIDTH 501 0
DWIDTH 25 0
BBX 24 38 1 -1
BITMAP
001F00
000F80
000F80
000780
0007C0
0003C0
0003C0
000000
000000
000000
007F80
01FFE0
03FFF0
07FFF8
0FFFF8
0FF3FC
1FC0FC
1F80FC
3F807E
3F007E
3F007E
3F007E
7E007E
7E007E
7E007E
7E007E
7E00FC
7E00FC
7E00FC
7E01FC
3F01F8
3F83F8
3FCFF0
1FFFF0
0FFFE0
0FFFC0
03FF00
01FE00
ENDCHAR

STARTCHAR oacute
ENCODING 243
SWIDTH 501 0
DWIDTH 25 0
BBX 24 38 1 -1
BITMAP
0000FC
0000F8
0001F0
0001F0
0003E0
0003C0
000780
000000
000000
000000
007F80
01FFE0
03FFF0
07FFF8
0FFFF8
0FF3FC
1FC0FC
1F80FC
3F807E
3F007E
3F007E
3F007E
7E007E
7E007E
7E007E
7E007E
7E00FC
7E00FC
7E00FC
7E01FC
3F01F8
3F83F8
3FCFF0
1FFFF0
0FFFE0
0FFFC0
03FF00
01FE00
ENDCHAR

STARTCHAR ocircumflex
ENCODING 244
SWIDTH 501 0
DWIDTH 25 0
BBX 24 38 1 -1
BITMAP
0007E0
000FE0
001FF0
003EF0
003CF0
007C78
00F878
000000
000000
000000
007F80
01FFE0
03FFF0
07FFF8
0FFFF8
0FF3FC
1FC0FC
1F80FC
3F807E
3F007E
3F007E
3F007E
7E007E
7E007E
7E007E
7E007E
7E00FC
7E00FC
7E00FC
7E01FC
3F01F8
3F83F8
3FCFF0
1FFFF0
0FFFE0
0FFFC0
03FF00
01FE00
ENDCHAR

STARTCHAR otilde
ENCODING 245
SWIDTH 501 0
DWIDTH 25 0
BBX 24 36 1 -1
BITMAP
001E0E
003F8C
003FFC
003FFC
0071F8
000070
000000
000000
007F80
01FFE0
03FFF0
07FFF8
0FFFF8
0FF3FC
1FC0FC
1F80FC
3F807E
3F007E
3F007E
3F007E
7E007E
7E007E
7E007E
7E007E
7E00FC
7E00FC
7E00FC
7E01FC
3F01F8
3F83F8
3FCFF0
1FFFF0
0FFFE0
0FFFC0
03FF00
01FE00
ENDCHAR

STARTCHAR odieresis
ENCODING 246
SWIDTH 501 0
DWIDTH 25 0
BBX 24 37 1 -1
BITMAP
003C3E
007C3E
007C3C
007C7C
007C7C
007C7C
000000
000000
000000
003F80
00FFC0
03FFF0
07FFF8
0FFFF8
0FF3FC
1FC0FC
1F80FC
3F807E
3F007E
3F007E
3F007E
7E007E
7E007E
7E007E
7E007E
7E00FC
7E00FC
7E00FC
7E01FC
3F01F8
3F83F8
3FCFF0
1FFFF0
0FFFE0
0FFFC0
03FF00
01FE00
ENDCHAR

STARTCHAR divide
ENCODING 247
SWIDTH 479 0
DWIDTH 24 0
BBX 24 26 1 5
BITMAP
007E00
007E00
007E00
007E00
007E00
007E00
007E00
000000
000000
000000
3FFFFC
3FFFFC
3FFFFC
3FFFFC
3FFFFC
3FFFFC
000000
000000
000000
007E00
007E00
007E00
007E00
007E00
007E00
007E00
ENDCHAR

STARTCHAR oslash
ENCODING 248
SWIDTH 501 0
DWIDTH 25 0
BBX 26 32 0 -3
BITMAP
00000200
00000700
001FCF00
007FFF00
01FFFE00
03FFFC00
07FFFE00
0FF0FE00
0FE0FE00
1FC0FF00
1F81FF00
1F83DF00
3F079F00
3F079F00
3F0F1F00
3F1E1F00
3E1E1F00
3E3C3F00
3E783F00
3E783F00
3EF07E00
3FE07E00
3FC0FE00
1FC1FC00
1FC7F800
0FFFF800
0FFFF000
1FFFE000
3FFF8000
3CFE0000
38000000
10000000
ENDCHAR

STARTCHAR ugrave
ENCODING 249
SWIDTH 501 0
DWIDTH 25 0
BBX 25 38 2 -1
BITMAP
001F8000
000F8000
000F8000
0007C000
0007C000
0003C000
0001E000
0001E000
00000000
00000000
00000000
0FC03F00
0FC03E00
0FC07E00
0F807E00
0F807E00
1F807E00
1F807E00
1F807C00
1F80FC00
1F00FC00
1F00FC00
3F00FC00
3F00F800
3F00F800
3F01F800
3E01F800
3E01F800
7E03F800
7E03F000
7E07F000
7E0FF000
7F1FF000
7FFFF000
3FFFF000
3FFBE000
1FE3E000
07800000
ENDCHAR

STARTCHAR uacute
ENCODING 250
SWIDTH 501 0
DWIDTH 25 0
BBX 25 38 2 -1
BITMAP
0000F800
0001F800
0003F000
0003E000
0007C000
00078000
000F0000
000E0000
00000000
00000000
00000000
0FC03F00
0FC03E00
0FC07E00
0F807E00
0F807E00
1F807E00
1F807E00
1F807C00
1F80FC00
1F00FC00
1F00FC00
3F00FC00
3F00F800
3F00F800
3F01F800
3E01F800
3E01F800
7E03F800
7E03F000
7E07F000
7E0FF000
7F1FF000
7FFFF000
3FFFF000
3FFBE000
1FE3E000
07800000
ENDCHAR

STARTCHAR ucircumflex
ENCODING 251
SWIDTH 501 0
DWIDTH 25 0
BBX 25 37 2 -1
BITMAP
0007E000
000FF000
000FF000
001FF000
003E7800
007C7800
00F87C00
00000000
00000000
00000000
0FC03F00
0FC03E00
0FC03E00
0F807E00
0F807E00
1F807E00
1F807E00
1F807C00
1F80FC00
1F00FC00
1F00FC00
3F00FC00
3F00F800
3F00F800
3F01F800
3E01F800
3E01F800
7E03F800
7E03F000
7E07F000
7E0FF000
7F1FF000
7FFFF000
3FFFF000
3FFBE000
1FE3E000
07800000
ENDCHAR

STARTCHAR udieresis
ENCODING 252
SWIDTH 501 0
DWIDTH 25 0
BBX 25 37 2 -1
BITMAP
003E3E00
003E3E00
003E3E00
007C3E00
007C3E00
007C3C00
00000000
00000000
00000000
00000000
0FC03F00
0FC03E00
0FC07E00
0F807E00
0F807E00
1F807E00
1F807E00
1F807C00
1F80FC00
1F00FC00
1F00FC00
3F00FC00
3F00F800
3F00F800
3F01F800
3E01F800
3E01F800
7E03F800
7E03F000
7E07F000
7E0FF000
7F1FF000
7FFFF000
3FFFF000
3FFBE000
1FE3E000
07800000
ENDCHAR

STARTCHAR dotlessi
ENCODING 253
SWIDTH 228 0
DWIDTH 11 0
BBX 13 26 0 0
BITMAP
03F0
03F0
03E0
07E0
07E0
07E0
07E0
07C0
07C0
0FC0
0FC0
0FC0
0FC0
0F80
0F80
1F80
1F80
1F80
1F80
1F00
1F00
3F00
3F00
3F00
3F00
3E00
ENDCHAR

STARTCHAR scedilla
ENCODING 254
SWIDTH 456 0
DWIDTH 23 0
BBX 25 37 -1 -10
BITMAP
001FC000
007FF000
01FFF800
01FFFC00
03FFFE00
07E0FE00
07C07E00
07C03800
07C00000
07E00000
07FC0000
07FF8000
03FFE000
03FFF000
00FFF800
007FF800
001FFC00
0003FC00
0001FC00
0F00FC00
3F00FC00
3F81F800
1FC3F800
1FFFF800
0FFFF000
07FFE000
03FF8000
007E0000
007C0000
007E0000
001F0000
000F0000
000F0000
001E0000
03FE0000
03FC0000
03E00000
ENDCHAR

STARTCHAR ydieresis
ENCODING 255
SWIDTH 456 0
DWIDTH 23 0
BBX 28 47 -1 -11
BITMAP
000F0F80
001F0F80
001F0F80
001F1F00
001F1F00
001F1F00
00000000
00000000
00000000
00000000
07C00FC0
07C00FC0
07E01F80
07E01F80
07E01F80
07E03F00
07E03F00
03E07E00
03E07E00
03E0FC00
03E0FC00
03F1F800
03F1F800
03F1F000
01F3F000
01F3E000
01F7E000
01F7E000
01F7C000
01F7C000
01FF8000
00FF8000
00FF0000
00FF0000
00FE0000
00FE0000
00FC0000
00FC0000
01FC0000
01F80000
03F80000
3FF00000
3FF00000
3FE00000
3FC00000
7F800000
1E000000
ENDCHAR
ENDFONT
